<?xml version="1.0" encoding="UTF-8"?>
<svg width="249px" height="108px" viewBox="0 0 249 108" version="1.1" xmlns="http://www.w3.org/2000/svg" xmlns:xlink="http://www.w3.org/1999/xlink">
    <!-- Generator: Sketch 49.3 (51167) - http://www.bohemiancoding.com/sketch -->
    <title>coins-pg-2</title>
    <desc>Created with Sketch.</desc>
    <defs>
        <path d="M4.596,0 C2.058,0 0,2.072 0,4.629 L0,91.372 C0,93.927 2.058,96 4.596,96 L67.403,96 C69.942,96 72,93.927 72,91.372 L72,23.229 C72,22.001 71.516,20.823 70.654,19.956 L52.183,1.356 C51.32,0.488 50.152,0 48.932,0 L4.596,0 Z" id="path-1"></path>
        <path d="M3.955,0 C3.873,0 3.798,0.031 3.743,0.081 L0.107,3.003 C0.043,3.054 0,3.131 0,3.216 C0,3.289 0.032,3.356 0.079,3.404 L1.95,4.908 C2.004,4.965 2.086,5 2.175,5 C2.259,5 2.334,4.969 2.389,4.917 L7.881,0.503 C7.954,0.451 8,0.371 8,0.28 C8,0.127 7.865,0 7.7,0 L3.955,0 Z" id="path-3"></path>
        <path d="M1.95,0.092 L0.079,1.596 C0.032,1.646 0,1.711 0,1.784 C0,1.869 0.043,1.947 0.107,1.997 L3.743,4.919 C3.798,4.968 3.873,5 3.955,5 L7.7,5 C7.865,5 8,4.875 8,4.72 C8,4.63 7.954,4.55 7.881,4.497 L2.389,0.082 C2.334,0.031 2.259,0 2.175,0 C2.086,0 2.004,0.036 1.95,0.092 Z" id="path-5"></path>
        <path d="M0.264,0 C0.118,0 0,0.126 0,0.281 C0,0.367 0.036,0.443 0.095,0.496 L5.833,5.794 C5.883,5.845 5.919,5.918 5.919,6.001 C5.919,6.087 5.881,6.164 5.822,6.215 L0.076,11.522 C0.03,11.573 0,11.643 0,11.72 C0,11.874 0.118,12 0.264,12 L3.544,12 C3.614,12 3.676,11.972 3.722,11.927 L9.908,6.212 C9.966,6.161 10,6.085 10,6.001 C10,5.915 9.966,5.839 9.91,5.788 L3.723,0.074 C3.676,0.029 3.614,0 3.544,0 L0.264,0 Z" id="path-7"></path>
        <path d="M3.907,0 C1.38,0 0,1.701 0,4.168 L0,16 L67,16 L52.162,1.516 C51.167,0.545 49.82,0 48.412,0 L3.907,0 Z" id="path-9"></path>
        <path d="M0,0.724 L0,19.088 C0,20.144 0.856,21 1.913,21 L20.276,21 C20.92,21 21.242,20.221 20.786,19.766 L1.235,0.213 C1.088,0.066 0.907,0 0.729,0 C0.357,0 0,0.289 0,0.724 Z" id="path-11"></path>
        <path d="M0,14.602 L0,20.909 C0.056,27.768 11.728,34.406 26.11,34.35 C40.491,34.35 52.053,27.712 52.108,20.853 L52.108,14.547 C52.108,6.526 40.381,0 25.999,0 C11.616,0 0,6.581 0,14.602 Z" id="path-13"></path>
        <path d="M0,14.547 L0,20.853 C0.056,27.712 11.21,34.406 25.592,34.35 C39.973,34.35 51.535,27.712 51.59,20.853 L51.59,14.547 C51.59,6.526 39.863,0 25.481,0 C11.098,0 0,6.526 0,14.547 Z" id="path-15"></path>
        <path d="M0,14.049 C0,21.819 11.282,28.099 25.118,28.045 C38.955,28.045 50.129,21.766 50.129,13.996 C50.129,6.279 38.849,0 25.011,0 C11.176,0 0,6.333 0,14.049 Z" id="path-17"></path>
        <path d="M0,10.62 C0.056,16.485 9.404,21.185 20.855,21.185 C32.305,21.185 41.597,16.429 41.597,10.565 C41.543,4.757 32.25,0 20.744,0 C9.293,0 0,4.757 0,10.62 Z" id="path-19"></path>
        <path d="M15.156,0 C15.045,0 14.991,0 14.936,0.055 L11.229,2.544 C11.174,2.6 11.118,2.655 11.118,2.71 C11.118,2.766 11.118,2.821 11.174,2.876 L13.11,4.148 C13.164,4.148 13.22,4.204 13.331,4.204 C13.441,4.204 13.496,4.204 13.552,4.148 L19.305,0.386 C19.36,0.386 19.416,0.277 19.416,0.221 C19.416,0.11 19.25,0 19.084,0 L15.156,0 Z M0.387,0 C0.221,0 0.055,0.11 0.055,0.221 C0.055,0.277 0.11,0.331 0.166,0.386 L6.97,4.867 C7.025,4.923 7.079,4.978 7.079,5.033 C7.079,5.089 7.025,5.145 6.97,5.2 L0.11,9.68 C0.055,9.736 0,9.791 0,9.845 C0,9.957 0.166,10.068 0.332,10.068 L4.26,10.068 C4.37,10.068 4.425,10.068 4.48,10.012 L11.893,5.2 C11.948,5.145 12.003,5.089 12.003,5.033 C12.003,4.978 11.948,4.923 11.893,4.867 L4.536,0.055 C4.48,0 4.37,0 4.314,0 L0.387,0 Z M12.999,5.919 L11.063,7.191 C11.063,7.246 11.008,7.302 11.008,7.357 C11.008,7.412 11.063,7.468 11.118,7.523 L14.936,10.012 C14.991,10.068 15.101,10.068 15.045,10.068 L18.973,10.068 C19.139,10.068 19.305,9.957 19.305,9.845 C19.305,9.791 19.25,9.736 19.194,9.68 L13.441,5.919 C13.387,5.863 13.331,5.863 13.22,5.863 C13.164,5.863 13.055,5.863 12.999,5.919 Z" id="path-21"></path>
        <path d="M0,3.094 L0.247,6.535 C0.192,6.535 0.948,9.372 4.61,12.375 C4.72,12.209 4.61,7.035 4.61,6.896 C3.278,5.882 0.404,2.665 0.247,0 L0,3.094 Z" id="path-23"></path>
        <path d="M0.0488888889,8.388 C0.0488888889,8.64 -0.0611111111,13.718 0.0488888889,13.884 C3.74788889,10.872 3.82788889,9.545 4.50388889,7.755 L4.50388889,3.553 L4.50388889,0 C4.13388889,5.82 0.0488888889,8.137 0.0488888889,8.388 Z" id="path-25"></path>
        <path d="M0,2.498 L0,7.737 C3.842,6.498 5.865,5.707 6.071,5.365 C6.06,2.872 6.06,1.083 6.071,0 C4.148,1.075 2.153,1.973 0,2.498 Z" id="path-27"></path>
        <path d="M0,14.603 L0,20.91 C0.055,27.768 11.727,34.407 26.109,34.351 C40.492,34.351 52.052,27.713 52.108,20.855 L52.108,14.548 C52.108,6.527 40.381,0 25.998,0 C11.616,0 0,6.583 0,14.603 Z" id="path-29"></path>
        <path d="M0,14.548 L0,20.855 C0.054,27.713 11.209,34.407 25.591,34.351 C39.974,34.351 51.534,27.713 51.59,20.855 L51.59,14.548 C51.59,6.527 39.863,0 25.48,0 C11.098,0 0,6.527 0,14.548 Z" id="path-31"></path>
        <path d="M0,14.049 C0,21.819 11.282,28.099 25.119,28.045 C38.954,28.045 50.131,21.766 50.131,13.996 C50.131,6.279 38.848,0 25.013,0 C11.175,0 0,6.333 0,14.049 Z" id="path-33"></path>
        <path d="M0,10.62 C0.055,16.484 9.403,21.186 20.854,21.186 C32.304,21.186 41.598,16.429 41.598,10.565 C41.542,4.757 32.249,0 20.743,0 C9.293,0 0,4.757 0,10.62 Z" id="path-35"></path>
        <path d="M15.156,0 C15.047,0 14.991,0 14.935,0.056 L11.229,2.545 C11.174,2.601 11.119,2.656 11.119,2.711 C11.119,2.767 11.119,2.822 11.174,2.877 L13.11,4.149 C13.166,4.149 13.22,4.204 13.331,4.204 C13.442,4.204 13.498,4.204 13.553,4.149 L19.305,0.387 C19.361,0.387 19.415,0.278 19.415,0.222 C19.415,0.111 19.25,0 19.084,0 L15.156,0 Z M0.387,0 C0.221,0 0.055,0.111 0.055,0.222 C0.055,0.278 0.111,0.332 0.165,0.387 L6.97,4.868 C7.025,4.924 7.081,4.979 7.081,5.034 C7.081,5.09 7.025,5.145 6.97,5.201 L0.111,9.681 C0.055,9.737 0,9.792 0,9.846 C0,9.957 0.165,10.069 0.332,10.069 L4.259,10.069 C4.37,10.069 4.425,10.069 4.481,10.013 L11.893,5.201 C11.949,5.145 12.004,5.09 12.004,5.034 C12.004,4.979 11.949,4.924 11.893,4.868 L4.536,0.056 C4.481,0 4.37,0 4.315,0 L0.387,0 Z M12.999,5.92 L11.063,7.192 C11.063,7.247 11.008,7.302 11.008,7.358 C11.008,7.413 11.063,7.469 11.119,7.523 L14.935,10.013 C14.991,10.069 15.101,10.069 15.047,10.069 L18.973,10.069 C19.139,10.069 19.305,9.957 19.305,9.846 C19.305,9.792 19.25,9.737 19.195,9.681 L13.442,5.92 C13.386,5.865 13.331,5.865 13.22,5.865 C13.166,5.865 13.054,5.865 12.999,5.92 Z" id="path-37"></path>
        <path d="M0,3.093 L0.246,6.535 C0.19,6.535 0.947,9.371 4.61,12.375 C4.72,12.209 4.61,7.034 4.61,6.896 C3.278,5.882 0.403,2.665 0.246,0 L0,3.093 Z" id="path-39"></path>
        <path d="M0.0493333333,8.388 C0.0493333333,8.64 -0.0616666667,13.718 0.0493333333,13.884 C3.74733333,10.871 3.82833333,9.545 4.50433333,7.754 L4.50433333,3.553 L4.50433333,0 C4.13233333,5.819 0.0493333333,8.136 0.0493333333,8.388 Z" id="path-41"></path>
        <path d="M0,2.499 L0,7.738 C3.843,6.499 5.865,5.708 6.07,5.366 C6.059,2.872 6.059,1.084 6.07,0 C4.149,1.076 2.152,1.974 0,2.499 Z" id="path-43"></path>
        <path d="M0,14.604 L0,20.909 C0.055,27.769 11.727,34.406 26.109,34.351 C40.492,34.351 52.052,27.713 52.108,20.854 L52.108,14.548 C52.108,6.527 40.381,0 25.998,0 C11.616,0 0,6.583 0,14.604 Z" id="path-45"></path>
        <path d="M0,14.548 L0,20.854 C0.054,27.713 11.209,34.406 25.591,34.351 C39.974,34.351 51.534,27.713 51.59,20.854 L51.59,14.548 C51.59,6.527 39.863,0 25.48,0 C11.098,0 0,6.527 0,14.548 Z" id="path-47"></path>
        <path d="M0,14.05 C0,21.819 11.282,28.099 25.119,28.046 C38.954,28.046 50.131,21.766 50.131,13.997 C50.131,6.279 38.848,0 25.013,0 C11.175,0 0,6.333 0,14.05 Z" id="path-49"></path>
        <path d="M0,10.621 C0.055,16.484 9.403,21.186 20.854,21.186 C32.304,21.186 41.598,16.428 41.598,10.565 C41.542,4.757 32.249,0 20.743,0 C9.293,0 0,4.757 0,10.621 Z" id="path-51"></path>
        <path d="M15.156,0 C15.047,0 14.991,0 14.935,0.055 L11.229,2.544 C11.174,2.599 11.119,2.655 11.119,2.711 C11.119,2.766 11.119,2.82 11.174,2.875 L13.11,4.148 C13.166,4.148 13.22,4.204 13.331,4.204 C13.442,4.204 13.498,4.204 13.553,4.148 L19.305,0.387 C19.361,0.387 19.415,0.276 19.415,0.221 C19.415,0.111 19.25,0 19.084,0 L15.156,0 Z M0.387,0 C0.221,0 0.055,0.111 0.055,0.221 C0.055,0.276 0.111,0.331 0.165,0.387 L6.97,4.867 C7.025,4.923 7.081,4.978 7.081,5.034 C7.081,5.088 7.025,5.144 6.97,5.199 L0.111,9.68 C0.055,9.735 0,9.79 0,9.846 C0,9.957 0.165,10.067 0.332,10.067 L4.259,10.067 C4.37,10.067 4.425,10.067 4.481,10.012 L11.893,5.199 C11.949,5.144 12.004,5.088 12.004,5.034 C12.004,4.978 11.949,4.923 11.893,4.867 L4.536,0.055 C4.481,0 4.37,0 4.315,0 L0.387,0 Z M12.999,5.918 L11.063,7.191 C11.063,7.246 11.008,7.301 11.008,7.357 C11.008,7.412 11.063,7.467 11.119,7.523 L14.935,10.012 C14.991,10.067 15.101,10.067 15.047,10.067 L18.973,10.067 C19.139,10.067 19.305,9.957 19.305,9.846 C19.305,9.79 19.25,9.735 19.195,9.68 L13.442,5.918 C13.386,5.863 13.331,5.863 13.22,5.863 C13.166,5.863 13.054,5.863 12.999,5.918 Z" id="path-53"></path>
        <path d="M0,3.094 L0.246,6.534 C0.19,6.534 0.947,9.371 4.61,12.375 C4.72,12.209 4.61,7.035 4.61,6.896 C3.278,5.881 0.403,2.665 0.246,0 L0,3.094 Z" id="path-55"></path>
        <path d="M0.0493333333,8.388 C0.0493333333,8.639 -0.0616666667,13.717 0.0493333333,13.884 C3.74733333,10.871 3.82833333,9.544 4.50433333,7.754 L4.50433333,3.552 L4.50433333,0 C4.13233333,5.819 0.0493333333,8.136 0.0493333333,8.388 Z" id="path-57"></path>
        <path d="M0,2.5 L0,7.737 C3.843,6.498 5.865,5.708 6.07,5.366 C6.059,2.873 6.059,1.083 6.07,0 C4.149,1.076 2.152,1.973 0,2.5 Z" id="path-59"></path>
        <path d="M0,15.607 L0,22.348 C0.059,29.679 12.534,36.773 27.906,36.714 C43.277,36.714 55.633,29.62 55.692,22.288 L55.692,15.548 C55.692,6.975 43.158,0 27.787,0 C12.415,0 0,7.036 0,15.607 Z" id="path-61"></path>
        <path d="M0,15.548 L0,22.288 C0.059,29.62 11.981,36.773 27.353,36.714 C42.724,36.714 55.08,29.62 55.139,22.288 L55.139,15.548 C55.139,6.975 42.605,0 27.234,0 C11.862,0 0,6.975 0,15.548 Z" id="path-63"></path>
        <path d="M0,15.016 C0,23.32 12.058,30.031 26.846,29.974 C41.635,29.974 53.579,23.263 53.579,14.959 C53.579,6.711 41.522,0 26.734,0 C11.944,0 0,6.769 0,15.016 Z" id="path-65"></path>
        <path d="M0,11.35 C0.06,17.617 10.052,22.643 22.29,22.643 C34.528,22.643 44.46,17.559 44.46,11.291 C44.401,5.085 34.469,0 22.171,0 C9.933,0 0,5.085 0,11.35 Z" id="path-67"></path>
        <path d="M16.199,0 C16.081,0 16.022,0 15.963,0.059 L12.002,2.72 C11.942,2.778 11.883,2.838 11.883,2.896 C11.883,2.956 11.883,3.014 11.942,3.075 L14.012,4.433 C14.071,4.433 14.13,4.493 14.248,4.493 C14.366,4.493 14.426,4.493 14.484,4.433 L20.634,0.414 C20.693,0.414 20.752,0.294 20.752,0.236 C20.752,0.118 20.574,0 20.397,0 L16.199,0 Z M0.414,0 C0.236,0 0.059,0.118 0.059,0.236 C0.059,0.294 0.118,0.355 0.178,0.414 L7.449,5.202 C7.508,5.262 7.567,5.32 7.567,5.379 C7.567,5.439 7.508,5.498 7.449,5.558 L0.118,10.346 C0.059,10.405 0,10.463 0,10.523 C0,10.642 0.178,10.76 0.354,10.76 L4.553,10.76 C4.671,10.76 4.729,10.76 4.789,10.701 L12.71,5.558 C12.771,5.498 12.829,5.439 12.829,5.379 C12.829,5.32 12.771,5.262 12.71,5.202 L4.847,0.059 C4.789,0 4.671,0 4.611,0 L0.414,0 Z M13.893,6.326 L11.824,7.685 C11.824,7.745 11.765,7.804 11.765,7.863 C11.765,7.922 11.824,7.981 11.883,8.04 L15.963,10.701 C16.022,10.76 16.14,10.76 16.081,10.76 L20.279,10.76 C20.456,10.76 20.634,10.642 20.634,10.523 C20.634,10.463 20.574,10.405 20.515,10.346 L14.366,6.326 C14.308,6.267 14.248,6.267 14.13,6.267 C14.071,6.267 13.953,6.267 13.893,6.326 Z" id="path-69"></path>
        <path d="M0,3.306 L0.263,6.982 C0.205,6.982 1.013,10.014 4.927,13.225 C5.045,13.047 4.927,7.518 4.927,7.369 C3.504,6.285 0.431,2.848 0.263,0 L0,3.306 Z" id="path-71"></path>
        <path d="M0.0524444444,8.965 C0.0524444444,9.233 -0.0655555556,14.661 0.0524444444,14.839 C4.00444444,11.619 4.09144444,10.201 4.81344444,8.288 L4.81344444,3.797 L4.81344444,0 C4.41744444,6.22 0.0524444444,8.696 0.0524444444,8.965 Z" id="path-73"></path>
        <path d="M0,2.672 L0,8.27 C4.105,6.945 6.269,6.101 6.488,5.734 C6.476,3.069 6.476,1.158 6.488,0 C4.434,1.15 2.3,2.108 0,2.672 Z" id="path-75"></path>
        <path d="M0,15.608 L0,22.348 C0.058,29.679 12.533,36.774 27.905,36.715 C43.276,36.715 55.632,29.62 55.692,22.289 L55.692,15.549 C55.692,6.976 43.158,0 27.787,0 C12.415,0 0,7.035 0,15.608 Z" id="path-77"></path>
        <path d="M0,15.549 L0,22.289 C0.06,29.62 11.981,36.774 27.353,36.715 C42.724,36.715 55.08,29.62 55.14,22.289 L55.14,15.549 C55.14,6.976 42.606,0 27.235,0 C11.863,0 0,6.976 0,15.549 Z" id="path-79"></path>
        <path d="M0,15.016 C0,23.319 12.057,30.032 26.846,29.975 C41.634,29.975 53.578,23.264 53.578,14.959 C53.578,6.713 41.521,0 26.733,0 C11.945,0 0,6.769 0,15.016 Z" id="path-81"></path>
        <path d="M0,11.352 C0.061,17.619 10.052,22.644 22.29,22.644 C34.528,22.644 44.461,17.56 44.461,11.293 C44.401,5.085 34.469,0 22.172,0 C9.934,0 0,5.085 0,11.352 Z" id="path-83"></path>
        <path d="M16.199,0 C16.081,0 16.022,0 15.963,0.058 L12.002,2.719 C11.943,2.778 11.884,2.837 11.884,2.896 C11.884,2.955 11.884,3.015 11.943,3.073 L14.012,4.433 C14.071,4.433 14.13,4.492 14.248,4.492 C14.367,4.492 14.426,4.492 14.485,4.433 L20.634,0.414 C20.692,0.414 20.752,0.295 20.752,0.235 C20.752,0.118 20.575,0 20.397,0 L16.199,0 Z M0.414,0 C0.236,0 0.06,0.118 0.06,0.235 C0.06,0.295 0.119,0.353 0.178,0.414 L7.449,5.202 C7.508,5.261 7.568,5.32 7.568,5.379 C7.568,5.438 7.508,5.497 7.449,5.557 L0.119,10.346 C0.06,10.405 0,10.464 0,10.522 C0,10.641 0.178,10.759 0.354,10.759 L4.553,10.759 C4.671,10.759 4.729,10.759 4.789,10.701 L12.711,5.557 C12.771,5.497 12.829,5.438 12.829,5.379 C12.829,5.32 12.771,5.261 12.711,5.202 L4.849,0.058 C4.789,0 4.671,0 4.611,0 L0.414,0 Z M13.894,6.326 L11.824,7.685 C11.824,7.744 11.765,7.803 11.765,7.863 C11.765,7.921 11.824,7.981 11.884,8.039 L15.963,10.701 C16.022,10.759 16.14,10.759 16.081,10.759 L20.279,10.759 C20.456,10.759 20.634,10.641 20.634,10.522 C20.634,10.464 20.575,10.405 20.515,10.346 L14.367,6.326 C14.308,6.265 14.248,6.265 14.13,6.265 C14.071,6.265 13.953,6.265 13.894,6.326 Z" id="path-85"></path>
        <path d="M0,3.306 L0.263,6.984 C0.204,6.984 1.012,10.016 4.926,13.226 C5.045,13.049 4.926,7.519 4.926,7.371 C3.503,6.286 0.43,2.848 0.263,0 L0,3.306 Z" id="path-87"></path>
        <path d="M0.0524444444,8.965 C0.0524444444,9.234 -0.0655555556,14.662 0.0524444444,14.84 C4.00644444,11.619 4.09144444,10.202 4.81344444,8.288 L4.81344444,3.797 L4.81344444,0 C4.41844444,6.22 0.0524444444,8.696 0.0524444444,8.965 Z" id="path-89"></path>
        <path d="M0,2.672 L0,8.271 C4.105,6.945 6.269,6.101 6.488,5.736 C6.476,3.07 6.476,1.158 6.488,0 C4.434,1.149 2.3,2.11 0,2.672 Z" id="path-91"></path>
        <path d="M0,15.608 L0,22.348 C0.058,29.68 12.533,36.773 27.905,36.715 C43.276,36.715 55.632,29.62 55.692,22.289 L55.692,15.549 C55.692,6.976 43.158,0 27.787,0 C12.414,0 0,7.036 0,15.608 Z" id="path-93"></path>
        <path d="M0,15.549 L0,22.289 C0.06,29.62 11.981,36.773 27.353,36.715 C42.724,36.715 55.08,29.62 55.14,22.289 L55.14,15.549 C55.14,6.976 42.606,0 27.235,0 C11.862,0 0,6.976 0,15.549 Z" id="path-95"></path>
        <path d="M0,15.015 C0,23.319 12.059,30.031 26.847,29.974 C41.635,29.974 53.579,23.263 53.579,14.959 C53.579,6.711 41.522,0 26.734,0 C11.944,0 0,6.768 0,15.015 Z" id="path-97"></path>
        <path d="M0,11.352 C0.058,17.619 10.051,22.644 22.289,22.644 C34.527,22.644 44.459,17.56 44.459,11.293 C44.4,5.085 34.468,0 22.171,0 C9.932,0 0,5.085 0,11.352 Z" id="path-99"></path>
        <path d="M16.199,0 C16.081,0 16.022,0 15.963,0.059 L12.002,2.72 C11.943,2.779 11.884,2.838 11.884,2.897 C11.884,2.956 11.884,3.016 11.943,3.074 L14.012,4.434 C14.071,4.434 14.13,4.494 14.248,4.494 C14.367,4.494 14.426,4.494 14.485,4.434 L20.634,0.414 C20.693,0.414 20.752,0.296 20.752,0.237 C20.752,0.119 20.574,0 20.397,0 L16.199,0 Z M0.414,0 C0.237,0 0.059,0.119 0.059,0.237 C0.059,0.296 0.118,0.355 0.178,0.414 L7.449,5.203 C7.509,5.262 7.567,5.321 7.567,5.38 C7.567,5.439 7.509,5.499 7.449,5.558 L0.118,10.346 C0.059,10.406 0,10.464 0,10.524 C0,10.642 0.178,10.76 0.355,10.76 L4.553,10.76 C4.671,10.76 4.73,10.76 4.789,10.702 L12.711,5.558 C12.771,5.499 12.829,5.439 12.829,5.38 C12.829,5.321 12.771,5.262 12.711,5.203 L4.847,0.059 C4.789,0 4.671,0 4.612,0 L0.414,0 Z M13.893,6.327 L11.824,7.686 C11.824,7.745 11.766,7.804 11.766,7.864 C11.766,7.923 11.824,7.982 11.884,8.041 L15.963,10.702 C16.022,10.76 16.141,10.76 16.081,10.76 L20.279,10.76 C20.456,10.76 20.634,10.642 20.634,10.524 C20.634,10.464 20.574,10.406 20.515,10.346 L14.367,6.327 C14.308,6.267 14.248,6.267 14.13,6.267 C14.071,6.267 13.954,6.267 13.893,6.327 Z" id="path-101"></path>
        <path d="M0,3.305 L0.264,6.982 C0.204,6.982 1.014,10.014 4.928,13.225 C5.046,13.047 4.928,7.517 4.928,7.369 C3.504,6.284 0.431,2.847 0.264,0 L0,3.305 Z" id="path-103"></path>
        <path d="M0.0524444444,8.965 C0.0524444444,9.233 -0.0655555556,14.661 0.0524444444,14.839 C4.00444444,11.619 4.09244444,10.201 4.81344444,8.288 L4.81344444,3.797 L4.81344444,0 C4.41744444,6.219 0.0524444444,8.695 0.0524444444,8.965 Z" id="path-105"></path>
        <path d="M0,2.672 L0,8.271 C4.105,6.945 6.268,6.101 6.487,5.735 C6.475,3.07 6.475,1.158 6.487,0 C4.433,1.149 2.299,2.109 0,2.672 Z" id="path-107"></path>
        <path d="M0,15.609 L0,22.348 C0.059,29.679 12.534,36.774 27.906,36.715 C43.277,36.715 55.633,29.62 55.692,22.29 L55.692,15.55 C55.692,6.977 43.158,0 27.787,0 C12.415,0 0,7.036 0,15.609 Z" id="path-109"></path>
        <path d="M0,15.55 L0,22.29 C0.059,29.62 11.981,36.774 27.353,36.715 C42.724,36.715 55.08,29.62 55.139,22.29 L55.139,15.55 C55.139,6.977 42.605,0 27.234,0 C11.862,0 0,6.977 0,15.55 Z" id="path-111"></path>
        <path d="M0,15.015 C0,23.32 12.058,30.032 26.846,29.975 C41.635,29.975 53.579,23.263 53.579,14.959 C53.579,6.711 41.522,0 26.734,0 C11.944,0 0,6.769 0,15.015 Z" id="path-113"></path>
        <path d="M0,11.351 C0.06,17.617 10.052,22.643 22.29,22.643 C34.528,22.643 44.46,17.558 44.46,11.292 C44.401,5.084 34.469,0 22.171,0 C9.933,0 0,5.084 0,11.351 Z" id="path-115"></path>
        <path d="M16.199,0 C16.081,0 16.022,0 15.963,0.059 L12.002,2.72 C11.942,2.779 11.883,2.839 11.883,2.897 C11.883,2.957 11.883,3.016 11.942,3.074 L14.012,4.434 C14.071,4.434 14.13,4.494 14.248,4.494 C14.366,4.494 14.426,4.494 14.484,4.434 L20.634,0.414 C20.693,0.414 20.752,0.296 20.752,0.238 C20.752,0.119 20.574,0 20.397,0 L16.199,0 Z M0.414,0 C0.236,0 0.059,0.119 0.059,0.238 C0.059,0.296 0.118,0.356 0.178,0.414 L7.449,5.203 C7.508,5.262 7.567,5.322 7.567,5.381 C7.567,5.44 7.508,5.499 7.449,5.558 L0.118,10.347 C0.059,10.406 0,10.465 0,10.525 C0,10.643 0.178,10.761 0.354,10.761 L4.553,10.761 C4.671,10.761 4.729,10.761 4.789,10.702 L12.71,5.558 C12.771,5.499 12.829,5.44 12.829,5.381 C12.829,5.322 12.771,5.262 12.71,5.203 L4.847,0.059 C4.789,0 4.671,0 4.611,0 L0.414,0 Z M13.893,6.326 L11.824,7.686 C11.824,7.746 11.765,7.805 11.765,7.863 C11.765,7.923 11.824,7.982 11.883,8.041 L15.963,10.702 C16.022,10.761 16.14,10.761 16.081,10.761 L20.279,10.761 C20.456,10.761 20.634,10.643 20.634,10.525 C20.634,10.465 20.574,10.406 20.515,10.347 L14.366,6.326 C14.308,6.268 14.248,6.268 14.13,6.268 C14.071,6.268 13.953,6.268 13.893,6.326 Z" id="path-117"></path>
        <path d="M0,3.306 L0.263,6.983 C0.205,6.983 1.013,10.014 4.927,13.225 C5.045,13.048 4.927,7.518 4.927,7.369 C3.504,6.285 0.431,2.847 0.263,0 L0,3.306 Z" id="path-119"></path>
        <path d="M0.0524444444,8.965 C0.0524444444,9.234 -0.0655555556,14.661 0.0524444444,14.839 C4.00444444,11.619 4.09144444,10.201 4.81344444,8.288 L4.81344444,3.797 L4.81344444,0 C4.41744444,6.22 0.0524444444,8.696 0.0524444444,8.965 Z" id="path-121"></path>
        <path d="M0,2.671 L0,8.27 C4.105,6.946 6.269,6.101 6.488,5.734 C6.476,3.069 6.476,1.159 6.488,0 C4.434,1.15 2.3,2.108 0,2.671 Z" id="path-123"></path>
        <path d="M1.776,0 C1.738,0 1.704,0.013 1.68,0.036 L0.049,1.348 C0.02,1.371 0,1.406 0,1.444 C0,1.476 0.014,1.506 0.036,1.527 L0.875,2.202 C0.9,2.228 0.936,2.244 0.976,2.244 C1.014,2.244 1.047,2.229 1.071,2.207 L3.537,0.226 C3.57,0.202 3.591,0.166 3.591,0.125 C3.591,0.057 3.529,0 3.456,0 L1.776,0 Z" id="path-125"></path>
        <path d="M0.875,0.04 L0.036,0.716 C0.014,0.739 0,0.768 0,0.801 C0,0.839 0.02,0.873 0.049,0.896 L1.68,2.208 C1.704,2.229 1.738,2.244 1.776,2.244 L3.456,2.244 C3.529,2.244 3.591,2.187 3.591,2.118 C3.591,2.078 3.57,2.042 3.537,2.019 L1.071,0.037 C1.047,0.014 1.014,0 0.976,0 C0.936,0 0.9,0.016 0.875,0.04 Z" id="path-127"></path>
        <path d="M0.118,0 C0.053,0 0,0.056 0,0.126 C0,0.164 0.016,0.2 0.042,0.223 L2.617,2.6 C2.64,2.623 2.655,2.655 2.655,2.693 C2.655,2.732 2.639,2.766 2.613,2.789 L0.034,5.17 C0.013,5.192 0,5.224 0,5.259 C0,5.328 0.053,5.385 0.118,5.385 L1.59,5.385 C1.621,5.385 1.65,5.372 1.671,5.351 L4.446,2.787 C4.472,2.765 4.488,2.731 4.488,2.693 C4.488,2.654 4.472,2.62 4.446,2.597 L1.671,0.033 C1.65,0.013 1.621,0 1.59,0 L0.118,0 Z" id="path-129"></path>
    </defs>
    <g id="Page-1" stroke="none" stroke-width="1" fill="none" fill-rule="evenodd">
        <g id="coins-pg-2" transform="translate(0.000000, 1.000000)">
            <g id="Page-1">
                <g id="Group-3" transform="translate(165.000000, 0.353000)">
                    <mask id="mask-2" fill="white">
                        <use xlink:href="#path-1"></use>
                    </mask>
                    <g id="Clip-2"></g>
                    <polygon id="Fill-1" fill="#FFFFFF" mask="url(#mask-2)" points="-5 101 77 101 77 -5 -5 -5"></polygon>
                </g>
                <g id="Group-6" transform="translate(201.000000, 47.353000)">
                    <mask id="mask-4" fill="white">
                        <use xlink:href="#path-3"></use>
                    </mask>
                    <g id="Clip-5"></g>
                    <polygon id="Fill-4" fill="#D5DAE0" mask="url(#mask-4)" points="-5 10 13 10 13 -5 -5 -5"></polygon>
                </g>
                <g id="Group-9" transform="translate(201.000000, 54.353000)">
                    <mask id="mask-6" fill="white">
                        <use xlink:href="#path-5"></use>
                    </mask>
                    <g id="Clip-8"></g>
                    <polygon id="Fill-7" fill="#D5DAE0" mask="url(#mask-6)" points="-5 10 13 10 13 -5 -5 -5"></polygon>
                </g>
                <g id="Group-12" transform="translate(192.000000, 47.353000)">
                    <mask id="mask-8" fill="white">
                        <use xlink:href="#path-7"></use>
                    </mask>
                    <g id="Clip-11"></g>
                    <polygon id="Fill-10" fill="#D5DAE0" mask="url(#mask-8)" points="-5 17 15 17 15 -5 -5 -5"></polygon>
                </g>
                <path d="M213.933,0 L169.596,0 C167.058,0 165,2.072 165,4.628 L165,91.371 C165,93.927 167.058,96 169.596,96 L232.404,96 C234.942,96 237,93.927 237,91.371 L237,23.229 C237,22.001 236.516,20.823 235.654,19.956 L217.183,1.355 C216.321,0.487 215.152,0 213.933,0 Z" id="Stroke-13" stroke="#37414B" stroke-width="2"></path>
                <g id="Group-17" transform="translate(166.000000, 1.353000)">
                    <mask id="mask-10" fill="white">
                        <use xlink:href="#path-9"></use>
                    </mask>
                    <g id="Clip-16"></g>
                    <polygon id="Fill-15" fill="#FFBC0B" mask="url(#mask-10)" points="-5 21 72 21 72 -5 -5 -5"></polygon>
                </g>
                <g id="Group-21" transform="translate(216.000000, 1.353000)">
                    <mask id="mask-12" fill="white">
                        <use xlink:href="#path-11"></use>
                    </mask>
                    <g id="Clip-19"></g>
                    <polygon id="Fill-18" fill="#F8F9FA" mask="url(#mask-12)" points="-5 26 26 26 26 -5 -5 -5"></polygon>
                    <polygon id="Fill-20" fill="#FFCD48" mask="url(#mask-12)" points="-5 26 26 26 26 -5 -5 -5"></polygon>
                </g>
                <path d="M216,1.72448129 L216,20.0874813 C216,21.1424813 216.856,21.9994813 217.913,21.9994813 L236.275,21.9994813 C236.92,21.9994813 237.242,21.2204813 236.786,20.7654813 L217.235,1.21348129 C216.779,0.757481291 216,1.08048129 216,1.72448129 Z" id="Stroke-22" stroke="#37414B" stroke-width="2"></path>
                <g id="Group-26" transform="translate(38.000000, 45.353000)">
                    <mask id="mask-14" fill="white">
                        <use xlink:href="#path-13"></use>
                    </mask>
                    <g id="Clip-25"></g>
                    <polygon id="Fill-24" fill="#E69C00" mask="url(#mask-14)" points="-3 37.883 54.64 37.883 54.64 -2 -3 -2"></polygon>
                </g>
                <g id="Group-29" transform="translate(38.000000, 45.353000)">
                    <mask id="mask-16" fill="white">
                        <use xlink:href="#path-15"></use>
                    </mask>
                    <g id="Clip-28"></g>
                    <polygon id="Fill-27" fill="#FFBC0B" mask="url(#mask-16)" points="-3 37.883 54.122 37.883 54.122 -2 -3 -2"></polygon>
                </g>
                <path d="M63.481,44 C48.071,44 36,51.269 36,60.548 L36,66.854 C36.068,75.262 48.622,82.352 63.415,82.352 L63.599,82.351 C78.701,82.351 91.522,75.262 91.589,66.871 L91.589,60.548 C91.589,51.269 79.243,44 63.481,44 M63.481,46 C77.863,46 89.589,52.527 89.589,60.548 L89.589,66.854 C89.535,73.713 77.973,80.351 63.591,80.351 C63.532,80.352 63.474,80.352 63.415,80.352 C49.119,80.352 38.055,73.685 38,66.854 L38,60.548 C38,52.527 49.098,46 63.481,46" id="Fill-30" fill="#37414B"></path>
                <g id="Group-34" transform="translate(39.000000, 46.353000)">
                    <mask id="mask-18" fill="white">
                        <use xlink:href="#path-17"></use>
                    </mask>
                    <g id="Clip-33"></g>
                    <polygon id="Fill-32" fill="#FFCD48" mask="url(#mask-18)" points="-3 30.578 52.662 30.578 52.662 -3 -3 -3"></polygon>
                </g>
                <g id="Group-37" transform="translate(43.000000, 49.353000)">
                    <mask id="mask-20" fill="white">
                        <use xlink:href="#path-19"></use>
                    </mask>
                    <g id="Clip-36"></g>
                    <polygon id="Fill-35" fill="#FFBC0B" mask="url(#mask-20)" points="-3 24.718 44.13 24.718 44.13 -2 -3 -2"></polygon>
                </g>
                <g id="Group-40" transform="translate(54.000000, 55.353000)">
                    <mask id="mask-22" fill="white">
                        <use xlink:href="#path-21"></use>
                    </mask>
                    <g id="Clip-39"></g>
                    <polygon id="Fill-38" fill="#FFDE85" mask="url(#mask-22)" points="-3 12.599 21.947 12.599 21.947 -3 -3 -3"></polygon>
                </g>
                <g id="Group-43" transform="translate(38.000000, 61.353000)">
                    <mask id="mask-24" fill="white">
                        <use xlink:href="#path-23"></use>
                    </mask>
                    <g id="Clip-42"></g>
                    <polygon id="Fill-41" fill="#CD7D00" mask="url(#mask-24)" points="-2 14.906 8.191 14.906 8.191 -3 -2 -3"></polygon>
                </g>
                <g id="Group-46" transform="translate(85.000000, 59.353000)">
                    <mask id="mask-26" fill="white">
                        <use xlink:href="#path-25"></use>
                    </mask>
                    <g id="Clip-45"></g>
                    <polygon id="Fill-44" fill="#CD7D00" mask="url(#mask-26)" points="-3 17.416 7.035 17.416 7.035 -2 -3 -2"></polygon>
                </g>
                <g id="Group-49" transform="translate(75.000000, 70.353000)">
                    <mask id="mask-28" fill="white">
                        <use xlink:href="#path-27"></use>
                    </mask>
                    <g id="Clip-48"></g>
                    <polygon id="Fill-47" fill="#FFDE85" mask="url(#mask-28)" points="-3 10.27 8.602 10.27 8.602 -3 -3 -3"></polygon>
                </g>
                <g id="Group-52" transform="translate(38.000000, 37.353000)">
                    <mask id="mask-30" fill="white">
                        <use xlink:href="#path-29"></use>
                    </mask>
                    <g id="Clip-51"></g>
                    <polygon id="Fill-50" fill="#E69C00" mask="url(#mask-30)" points="-3 36.884 54.64 36.884 54.64 -3 -3 -3"></polygon>
                </g>
                <g id="Group-55" transform="translate(39.000000, 37.353000)">
                    <mask id="mask-32" fill="white">
                        <use xlink:href="#path-31"></use>
                    </mask>
                    <g id="Clip-54"></g>
                    <polygon id="Fill-53" fill="#FFBC0B" mask="url(#mask-32)" points="-3 36.884 54.122 36.884 54.122 -3 -3 -3"></polygon>
                </g>
                <path d="M64.48,35 C49.07,35 37,42.269 37,51.548 L37,57.854 C37.067,66.263 49.622,73.352 64.414,73.352 L64.598,73.352 C79.7,73.352 92.522,66.262 92.589,57.87 L92.589,51.548 C92.589,42.269 80.243,35 64.48,35 M64.48,37 C78.862,37 90.589,43.527 90.589,51.548 L90.589,57.854 C90.534,64.714 78.973,71.352 64.59,71.352 L64.414,71.352 C50.118,71.352 39.054,64.686 39,57.854 L39,51.548 C39,43.527 50.098,37 64.48,37" id="Fill-56" fill="#37414B"></path>
                <g id="Group-60" transform="translate(39.000000, 37.353000)">
                    <mask id="mask-34" fill="white">
                        <use xlink:href="#path-33"></use>
                    </mask>
                    <g id="Clip-59"></g>
                    <polygon id="Fill-58" fill="#FFCD48" mask="url(#mask-34)" points="-2 30.578 53.662 30.578 53.662 -3 -2 -3"></polygon>
                </g>
                <g id="Group-63" transform="translate(43.000000, 41.353000)">
                    <mask id="mask-36" fill="white">
                        <use xlink:href="#path-35"></use>
                    </mask>
                    <g id="Clip-62"></g>
                    <polygon id="Fill-61" fill="#FFBC0B" mask="url(#mask-36)" points="-2 23.717 45.129 23.717 45.129 -3 -2 -3"></polygon>
                </g>
                <g id="Group-66" transform="translate(55.000000, 46.353000)">
                    <mask id="mask-38" fill="white">
                        <use xlink:href="#path-37"></use>
                    </mask>
                    <g id="Clip-65"></g>
                    <polygon id="Fill-64" fill="#FFDE85" mask="url(#mask-38)" points="-3 13.599 21.948 13.599 21.948 -2 -3 -2"></polygon>
                </g>
                <g id="Group-69" transform="translate(39.000000, 52.353000)">
                    <mask id="mask-40" fill="white">
                        <use xlink:href="#path-39"></use>
                    </mask>
                    <g id="Clip-68"></g>
                    <polygon id="Fill-67" fill="#CD7D00" mask="url(#mask-40)" points="-3 15.906 7.19 15.906 7.19 -2 -3 -2"></polygon>
                </g>
                <g id="Group-72" transform="translate(85.000000, 51.353000)">
                    <mask id="mask-42" fill="white">
                        <use xlink:href="#path-41"></use>
                    </mask>
                    <g id="Clip-71"></g>
                    <polygon id="Fill-70" fill="#CD7D00" mask="url(#mask-42)" points="-3 16.416 7.035 16.416 7.035 -3 -3 -3"></polygon>
                </g>
                <g id="Group-75" transform="translate(76.000000, 61.353000)">
                    <mask id="mask-44" fill="white">
                        <use xlink:href="#path-43"></use>
                    </mask>
                    <g id="Clip-74"></g>
                    <polygon id="Fill-73" fill="#FFDE85" mask="url(#mask-44)" points="-3 10.27 8.602 10.27 8.602 -3 -3 -3"></polygon>
                </g>
                <g id="Group-78" transform="translate(38.000000, 27.353000)">
                    <mask id="mask-46" fill="white">
                        <use xlink:href="#path-45"></use>
                    </mask>
                    <g id="Clip-77"></g>
                    <polygon id="Fill-76" fill="#E69C00" mask="url(#mask-46)" points="-3 36.883 54.64 36.883 54.64 -3 -3 -3"></polygon>
                </g>
                <g id="Group-81" transform="translate(39.000000, 27.353000)">
                    <mask id="mask-48" fill="white">
                        <use xlink:href="#path-47"></use>
                    </mask>
                    <g id="Clip-80"></g>
                    <polygon id="Fill-79" fill="#FFBC0B" mask="url(#mask-48)" points="-3 36.883 54.122 36.883 54.122 -3 -3 -3"></polygon>
                </g>
                <path d="M64.48,25 C49.07,25 37,32.269 37,41.548 L37,47.854 C37.067,56.262 49.622,63.352 64.414,63.352 L64.598,63.352 C79.7,63.352 92.522,56.262 92.589,47.87 L92.589,41.548 C92.589,32.269 80.243,25 64.48,25 M64.48,27 C78.862,27 90.589,33.527 90.589,41.548 L90.589,47.854 C90.534,54.713 78.973,61.352 64.59,61.352 L64.414,61.352 C50.118,61.352 39.054,54.685 39,47.854 L39,41.548 C39,33.527 50.098,27 64.48,27" id="Fill-82" fill="#37414B"></path>
                <g id="Group-86" transform="translate(39.000000, 27.353000)">
                    <mask id="mask-50" fill="white">
                        <use xlink:href="#path-49"></use>
                    </mask>
                    <g id="Clip-85"></g>
                    <polygon id="Fill-84" fill="#FFCD48" mask="url(#mask-50)" points="-2 31.577 53.662 31.577 53.662 -2 -2 -2"></polygon>
                </g>
                <g id="Group-89" transform="translate(43.000000, 31.353000)">
                    <mask id="mask-52" fill="white">
                        <use xlink:href="#path-51"></use>
                    </mask>
                    <g id="Clip-88"></g>
                    <polygon id="Fill-87" fill="#FFBC0B" mask="url(#mask-52)" points="-2 23.718 45.129 23.718 45.129 -3 -2 -3"></polygon>
                </g>
                <g id="Group-92" transform="translate(55.000000, 37.353000)">
                    <mask id="mask-54" fill="white">
                        <use xlink:href="#path-53"></use>
                    </mask>
                    <g id="Clip-91"></g>
                    <polygon id="Fill-90" fill="#FFDE85" mask="url(#mask-54)" points="-3 12.599 21.948 12.599 21.948 -3 -3 -3"></polygon>
                </g>
                <g id="Group-95" transform="translate(39.000000, 43.353000)">
                    <mask id="mask-56" fill="white">
                        <use xlink:href="#path-55"></use>
                    </mask>
                    <g id="Clip-94"></g>
                    <polygon id="Fill-93" fill="#CD7D00" mask="url(#mask-56)" points="-3 14.907 7.19 14.907 7.19 -3 -3 -3"></polygon>
                </g>
                <g id="Group-98" transform="translate(85.000000, 41.353000)">
                    <mask id="mask-58" fill="white">
                        <use xlink:href="#path-57"></use>
                    </mask>
                    <g id="Clip-97"></g>
                    <polygon id="Fill-96" fill="#CD7D00" mask="url(#mask-58)" points="-3 16.416 7.035 16.416 7.035 -3 -3 -3"></polygon>
                </g>
                <g id="Group-101" transform="translate(76.000000, 51.353000)">
                    <mask id="mask-60" fill="white">
                        <use xlink:href="#path-59"></use>
                    </mask>
                    <g id="Clip-100"></g>
                    <polygon id="Fill-99" fill="#FFDE85" mask="url(#mask-60)" points="-3 11.27 8.602 11.27 8.602 -2 -3 -2"></polygon>
                </g>
                <g id="Group-104" transform="translate(2.000000, 60.353000)">
                    <mask id="mask-62" fill="white">
                        <use xlink:href="#path-61"></use>
                    </mask>
                    <g id="Clip-103"></g>
                    <polygon id="Fill-102" fill="#E69C00" mask="url(#mask-62)" points="-3 39.627 58.604 39.627 58.604 -3 -3 -3"></polygon>
                </g>
                <g id="Group-107" transform="translate(2.000000, 60.353000)">
                    <mask id="mask-64" fill="white">
                        <use xlink:href="#path-63"></use>
                    </mask>
                    <g id="Clip-106"></g>
                    <polygon id="Fill-105" fill="#FFBC0B" mask="url(#mask-64)" points="-3 39.627 58.052 39.627 58.052 -3 -3 -3"></polygon>
                </g>
                <path d="M29.234,58 C12.84,58 0,65.709 0,75.549 L0,82.289 C0.072,91.2 13.426,98.715 29.163,98.715 L29.36,98.715 C45.426,98.715 59.067,91.2 59.139,82.306 L59.139,75.549 C59.139,65.709 46.003,58 29.234,58 M29.234,60 C44.605,60 57.139,66.977 57.139,75.549 L57.139,82.289 C57.08,89.62 44.723,96.715 29.352,96.715 L29.163,96.715 C13.883,96.715 2.059,89.59 2,82.289 L2,75.549 C2,66.977 13.862,60 29.234,60" id="Fill-108" fill="#37414B"></path>
                <g id="Group-112" transform="translate(3.000000, 60.353000)">
                    <mask id="mask-66" fill="white">
                        <use xlink:href="#path-65"></use>
                    </mask>
                    <g id="Clip-111"></g>
                    <polygon id="Fill-110" fill="#FFCD48" mask="url(#mask-66)" points="-3 32.887 56.491 32.887 56.491 -3 -3 -3"></polygon>
                </g>
                <g id="Group-115" transform="translate(7.000000, 64.353000)">
                    <mask id="mask-68" fill="white">
                        <use xlink:href="#path-67"></use>
                    </mask>
                    <g id="Clip-114"></g>
                    <polygon id="Fill-113" fill="#FFBC0B" mask="url(#mask-68)" points="-3 25.556 47.371 25.556 47.371 -3 -3 -3"></polygon>
                </g>
                <g id="Group-118" transform="translate(19.000000, 70.353000)">
                    <mask id="mask-70" fill="white">
                        <use xlink:href="#path-69"></use>
                    </mask>
                    <g id="Clip-117"></g>
                    <polygon id="Fill-116" fill="#FFDE85" mask="url(#mask-70)" points="-3 13.672 23.664 13.672 23.664 -3 -3 -3"></polygon>
                </g>
                <g id="Group-121" transform="translate(3.000000, 76.353000)">
                    <mask id="mask-72" fill="white">
                        <use xlink:href="#path-71"></use>
                    </mask>
                    <g id="Clip-120"></g>
                    <polygon id="Fill-119" fill="#CD7D00" mask="url(#mask-72)" points="-3 17.138 7.892 17.138 7.892 -2 -3 -2"></polygon>
                </g>
                <g id="Group-124" transform="translate(52.000000, 75.353000)">
                    <mask id="mask-74" fill="white">
                        <use xlink:href="#path-73"></use>
                    </mask>
                    <g id="Clip-123"></g>
                    <polygon id="Fill-122" fill="#CD7D00" mask="url(#mask-74)" points="-3 17.751 7.726 17.751 7.726 -3 -3 -3"></polygon>
                </g>
                <g id="Group-127" transform="translate(42.000000, 86.353000)">
                    <mask id="mask-76" fill="white">
                        <use xlink:href="#path-75"></use>
                    </mask>
                    <g id="Clip-126"></g>
                    <polygon id="Fill-125" fill="#FFDE85" mask="url(#mask-76)" points="-3 11.183 9.399 11.183 9.399 -3 -3 -3"></polygon>
                </g>
                <g id="Group-130" transform="translate(5.000000, 51.353000)">
                    <mask id="mask-78" fill="white">
                        <use xlink:href="#path-77"></use>
                    </mask>
                    <g id="Clip-129"></g>
                    <polygon id="Fill-128" fill="#E69C00" mask="url(#mask-78)" points="-3 39.626 58.604 39.626 58.604 -3 -3 -3"></polygon>
                </g>
                <g id="Group-133" transform="translate(5.000000, 51.353000)">
                    <mask id="mask-80" fill="white">
                        <use xlink:href="#path-79"></use>
                    </mask>
                    <g id="Clip-132"></g>
                    <polygon id="Fill-131" fill="#FFBC0B" mask="url(#mask-80)" points="-3 39.626 58.052 39.626 58.052 -3 -3 -3"></polygon>
                </g>
                <path d="M32.234,50 C15.84,50 3,57.708 3,67.549 L3,74.289 C3.072,83.2 16.426,90.714 32.163,90.714 L32.36,90.714 C48.426,90.714 62.067,83.2 62.139,74.305 L62.139,67.549 C62.139,57.708 49.004,50 32.234,50 M32.234,52 C47.605,52 60.139,58.976 60.139,67.549 L60.139,74.289 C60.08,81.62 47.723,88.714 32.352,88.714 L32.163,88.714 C16.883,88.714 5.059,81.589 5,74.289 L5,67.549 C5,58.976 16.862,52 32.234,52" id="Fill-134" fill="#37414B"></path>
                <g id="Group-138" transform="translate(6.000000, 52.353000)">
                    <mask id="mask-82" fill="white">
                        <use xlink:href="#path-81"></use>
                    </mask>
                    <g id="Clip-137"></g>
                    <polygon id="Fill-136" fill="#FFCD48" mask="url(#mask-82)" points="-3 32.887 56.49 32.887 56.49 -3 -3 -3"></polygon>
                </g>
                <g id="Group-141" transform="translate(10.000000, 55.353000)">
                    <mask id="mask-84" fill="white">
                        <use xlink:href="#path-83"></use>
                    </mask>
                    <g id="Clip-140"></g>
                    <polygon id="Fill-139" fill="#FFBC0B" mask="url(#mask-84)" points="-3 26.555 47.372 26.555 47.372 -2 -3 -2"></polygon>
                </g>
                <g id="Group-144" transform="translate(22.000000, 61.353000)">
                    <mask id="mask-86" fill="white">
                        <use xlink:href="#path-85"></use>
                    </mask>
                    <g id="Clip-143"></g>
                    <polygon id="Fill-142" fill="#FFDE85" mask="url(#mask-86)" points="-3 13.672 23.664 13.672 23.664 -3 -3 -3"></polygon>
                </g>
                <g id="Group-147" transform="translate(6.000000, 68.353000)">
                    <mask id="mask-88" fill="white">
                        <use xlink:href="#path-87"></use>
                    </mask>
                    <g id="Clip-146"></g>
                    <polygon id="Fill-145" fill="#CD7D00" mask="url(#mask-88)" points="-3 16.138 7.892 16.138 7.892 -3 -3 -3"></polygon>
                </g>
                <g id="Group-150" transform="translate(55.000000, 66.353000)">
                    <mask id="mask-90" fill="white">
                        <use xlink:href="#path-89"></use>
                    </mask>
                    <g id="Clip-149"></g>
                    <polygon id="Fill-148" fill="#CD7D00" mask="url(#mask-90)" points="-3 17.751 7.726 17.751 7.726 -3 -3 -3"></polygon>
                </g>
                <g id="Group-153" transform="translate(45.000000, 77.353000)">
                    <mask id="mask-92" fill="white">
                        <use xlink:href="#path-91"></use>
                    </mask>
                    <g id="Clip-152"></g>
                    <polygon id="Fill-151" fill="#FFDE85" mask="url(#mask-92)" points="-3 11.183 9.399 11.183 9.399 -3 -3 -3"></polygon>
                </g>
                <g id="Group-156" transform="translate(2.000000, 41.353000)">
                    <mask id="mask-94" fill="white">
                        <use xlink:href="#path-93"></use>
                    </mask>
                    <g id="Clip-155"></g>
                    <polygon id="Fill-154" fill="#E69C00" mask="url(#mask-94)" points="-3 39.627 58.604 39.627 58.604 -3 -3 -3"></polygon>
                </g>
                <g id="Group-159" transform="translate(3.000000, 41.353000)">
                    <mask id="mask-96" fill="white">
                        <use xlink:href="#path-95"></use>
                    </mask>
                    <g id="Clip-158"></g>
                    <polygon id="Fill-157" fill="#FFBC0B" mask="url(#mask-96)" points="-3 39.627 58.052 39.627 58.052 -3 -3 -3"></polygon>
                </g>
                <path d="M30.234,40 C13.84,40 1,47.708 1,57.549 L1,64.289 C1.072,73.2 14.426,80.715 30.163,80.715 L30.36,80.715 C46.426,80.715 60.067,73.2 60.139,64.306 L60.139,57.549 C60.139,47.708 47.003,40 30.234,40 M30.234,42 C45.605,42 58.139,48.977 58.139,57.549 L58.139,64.289 C58.08,71.62 45.723,78.715 30.352,78.715 L30.163,78.715 C14.883,78.715 3.058,71.59 3,64.289 L3,57.549 C3,48.977 14.862,42 30.234,42" id="Fill-160" fill="#37414B"></path>
                <g id="Group-164" transform="translate(3.000000, 42.353000)">
                    <mask id="mask-98" fill="white">
                        <use xlink:href="#path-97"></use>
                    </mask>
                    <g id="Clip-163"></g>
                    <polygon id="Fill-162" fill="#FFCD48" mask="url(#mask-98)" points="-3 32.887 56.491 32.887 56.491 -3 -3 -3"></polygon>
                </g>
                <g id="Group-167" transform="translate(8.000000, 46.353000)">
                    <mask id="mask-100" fill="white">
                        <use xlink:href="#path-99"></use>
                    </mask>
                    <g id="Clip-166"></g>
                    <polygon id="Fill-165" fill="#FFBC0B" mask="url(#mask-100)" points="-3 25.556 47.371 25.556 47.371 -3 -3 -3"></polygon>
                </g>
                <g id="Group-170" transform="translate(20.000000, 52.353000)">
                    <mask id="mask-102" fill="white">
                        <use xlink:href="#path-101"></use>
                    </mask>
                    <g id="Clip-169"></g>
                    <polygon id="Fill-168" fill="#FFDE85" mask="url(#mask-102)" points="-3 13.672 23.664 13.672 23.664 -3 -3 -3"></polygon>
                </g>
                <g id="Group-173" transform="translate(3.000000, 58.353000)">
                    <mask id="mask-104" fill="white">
                        <use xlink:href="#path-103"></use>
                    </mask>
                    <g id="Clip-172"></g>
                    <polygon id="Fill-171" fill="#CD7D00" mask="url(#mask-104)" points="-3 16.138 7.892 16.138 7.892 -3 -3 -3"></polygon>
                </g>
                <g id="Group-176" transform="translate(52.000000, 56.353000)">
                    <mask id="mask-106" fill="white">
                        <use xlink:href="#path-105"></use>
                    </mask>
                    <g id="Clip-175"></g>
                    <polygon id="Fill-174" fill="#CD7D00" mask="url(#mask-106)" points="-3 17.751 7.726 17.751 7.726 -3 -3 -3"></polygon>
                </g>
                <g id="Group-179" transform="translate(42.000000, 68.353000)">
                    <mask id="mask-108" fill="white">
                        <use xlink:href="#path-107"></use>
                    </mask>
                    <g id="Clip-178"></g>
                    <polygon id="Fill-177" fill="#FFDE85" mask="url(#mask-108)" points="-3 11.183 9.399 11.183 9.399 -3 -3 -3"></polygon>
                </g>
                <g id="Group-182" transform="translate(2.000000, 30.353000)">
                    <mask id="mask-110" fill="white">
                        <use xlink:href="#path-109"></use>
                    </mask>
                    <g id="Clip-181"></g>
                    <polygon id="Fill-180" fill="#E69C00" mask="url(#mask-110)" points="-3 39.627 58.604 39.627 58.604 -3 -3 -3"></polygon>
                </g>
                <g id="Group-185" transform="translate(2.000000, 30.353000)">
                    <mask id="mask-112" fill="white">
                        <use xlink:href="#path-111"></use>
                    </mask>
                    <g id="Clip-184"></g>
                    <polygon id="Fill-183" fill="#FFBC0B" mask="url(#mask-112)" points="-3 39.627 58.052 39.627 58.052 -3 -3 -3"></polygon>
                </g>
                <path d="M29.234,29 C12.84,29 0,36.708 0,46.549 L0,53.289 C0.072,62.2 13.426,69.715 29.163,69.715 L29.36,69.715 C45.426,69.715 59.067,62.2 59.139,53.305 L59.139,46.549 C59.139,36.708 46.003,29 29.234,29 M29.234,31 C44.605,31 57.139,37.977 57.139,46.549 L57.139,53.289 C57.08,60.62 44.723,67.715 29.352,67.715 L29.163,67.715 C13.883,67.715 2.059,60.59 2,53.289 L2,46.549 C2,37.977 13.862,31 29.234,31" id="Fill-186" fill="#37414B"></path>
                <g id="Group-190" transform="translate(3.000000, 31.353000)">
                    <mask id="mask-114" fill="white">
                        <use xlink:href="#path-113"></use>
                    </mask>
                    <g id="Clip-189"></g>
                    <polygon id="Fill-188" fill="#FFCD48" mask="url(#mask-114)" points="-3 32.887 56.491 32.887 56.491 -3 -3 -3"></polygon>
                </g>
                <g id="Group-193" transform="translate(7.000000, 35.353000)">
                    <mask id="mask-116" fill="white">
                        <use xlink:href="#path-115"></use>
                    </mask>
                    <g id="Clip-192"></g>
                    <polygon id="Fill-191" fill="#FFBC0B" mask="url(#mask-116)" points="-3 25.556 47.371 25.556 47.371 -3 -3 -3"></polygon>
                </g>
                <g id="Group-196" transform="translate(19.000000, 41.353000)">
                    <mask id="mask-118" fill="white">
                        <use xlink:href="#path-117"></use>
                    </mask>
                    <g id="Clip-195"></g>
                    <polygon id="Fill-194" fill="#FFDE85" mask="url(#mask-118)" points="-3 13.672 23.664 13.672 23.664 -3 -3 -3"></polygon>
                </g>
                <g id="Group-199" transform="translate(3.000000, 47.353000)">
                    <mask id="mask-120" fill="white">
                        <use xlink:href="#path-119"></use>
                    </mask>
                    <g id="Clip-198"></g>
                    <polygon id="Fill-197" fill="#CD7D00" mask="url(#mask-120)" points="-3 16.138 7.892 16.138 7.892 -3 -3 -3"></polygon>
                </g>
                <g id="Group-202" transform="translate(52.000000, 45.353000)">
                    <mask id="mask-122" fill="white">
                        <use xlink:href="#path-121"></use>
                    </mask>
                    <g id="Clip-201"></g>
                    <polygon id="Fill-200" fill="#CD7D00" mask="url(#mask-122)" points="-3 17.751 7.726 17.751 7.726 -3 -3 -3"></polygon>
                </g>
                <g id="Group-205" transform="translate(42.000000, 57.353000)">
                    <mask id="mask-124" fill="white">
                        <use xlink:href="#path-123"></use>
                    </mask>
                    <g id="Clip-204"></g>
                    <polygon id="Fill-203" fill="#FFDE85" mask="url(#mask-124)" points="-3 11.182 9.399 11.182 9.399 -3 -3 -3"></polygon>
                </g>
                <g id="Group-216" transform="translate(197.000000, 81.353000)">
                    <path d="M38.823,24.229 L12,24.229 C5.4,24.229 0,18.83 0,12.229 L0,12 C0,5.4 5.4,0 12,0 L38.823,0 C45.423,0 50.823,5.4 50.823,12 L50.823,12.229 C50.823,18.83 45.423,24.229 38.823,24.229" id="Fill-206" fill="#F2F4F6"></path>
                    <path d="M38.823,24.229 L12,24.229 C5.4,24.229 0,18.83 0,12.229 L0,12 C0,5.4 5.4,0 12,0 L38.823,0 C45.423,0 50.823,5.4 50.823,12 L50.823,12.229 C50.823,18.83 45.423,24.229 38.823,24.229 Z" id="Stroke-208" stroke="#37414B" stroke-width="1.5"></path>
                    <path d="M13.342,19.684 C9.294,19.684 6,16.39 6,12.342 C6,8.294 9.294,5 13.342,5 C17.39,5 20.684,8.294 20.684,12.342 C20.684,16.39 17.39,19.684 13.342,19.684" id="Fill-210" fill="#FFBC0B"></path>
                    <path d="M13.342,4 C8.742,4 5,7.742 5,12.342 C5,16.941 8.742,20.684 13.342,20.684 C17.942,20.684 21.684,16.941 21.684,12.342 C21.684,7.742 17.942,4 13.342,4 M13.342,6 C16.844,6 19.684,8.839 19.684,12.342 C19.684,15.844 16.844,18.684 13.342,18.684 C9.84,18.684 7,15.844 7,12.342 C7,8.839 9.84,6 13.342,6" id="Fill-212" fill="#FFCD48"></path>
                    <path d="M15.68,10.036 C15.704,10.014 15.739,10 15.776,10 L17.455,10 C17.53,10 17.59,10.057 17.59,10.125 C17.59,10.166 17.57,10.202 17.537,10.225 L15.072,12.207 C15.047,12.229 15.014,12.243 14.976,12.243 C14.936,12.243 14.9,12.227 14.875,12.202 L14.035,11.527 C14.014,11.506 14,11.475 14,11.443 C14,11.405 14.02,11.37 14.049,11.348 L15.68,10.036 Z" id="Fill-214" fill="#FFDE85"></path>
                </g>
                <g id="Group-219" transform="translate(211.000000, 91.353000)">
                    <mask id="mask-126" fill="white">
                        <use xlink:href="#path-125"></use>
                    </mask>
                    <g id="Clip-218"></g>
                    <polygon id="Fill-217" fill="#FFDE85" mask="url(#mask-126)" points="-3 3.731 5.076 3.731 5.076 -3 -3 -3"></polygon>
                </g>
                <path d="M212.68,96.208 C212.704,96.229 212.739,96.244 212.776,96.244 L214.455,96.244 C214.53,96.244 214.59,96.187 214.59,96.118 C214.59,96.078 214.57,96.042 214.537,96.019 L212.072,94.037 C212.047,94.015 212.014,94 211.976,94 C211.936,94 211.9,94.017 211.875,94.041 L211.035,94.716 C211.014,94.739 211,94.768 211,94.801 C211,94.839 211.02,94.873 211.049,94.896 L212.68,96.208 Z" id="Fill-220" fill="#FFDE85"></path>
                <g id="Group-224" transform="translate(211.000000, 94.353000)">
                    <mask id="mask-128" fill="white">
                        <use xlink:href="#path-127"></use>
                    </mask>
                    <g id="Clip-223"></g>
                    <polygon id="Fill-222" fill="#FFDE85" mask="url(#mask-128)" points="-3 3.73 5.076 3.73 5.076 -3 -3 -3"></polygon>
                </g>
                <path d="M208.67,96.352 C208.649,96.373 208.621,96.385 208.59,96.385 L207.118,96.385 C207.053,96.385 207,96.329 207,96.259 C207,96.224 207.013,96.193 207.034,96.17 L209.612,93.789 C209.639,93.766 209.655,93.732 209.655,93.693 C209.655,93.656 209.64,93.623 209.617,93.6 L207.042,91.223 C207.016,91.2 207,91.165 207,91.126 C207,91.056 207.053,91 207.118,91 L208.59,91 C208.621,91 208.649,91.013 208.671,91.034 L211.446,93.597 C211.472,93.621 211.487,93.655 211.487,93.693 C211.487,93.731 211.472,93.765 211.446,93.788 L208.67,96.352 Z" id="Fill-225" fill="#FFDE85"></path>
                <g id="Group-229" transform="translate(207.000000, 91.353000)">
                    <mask id="mask-130" fill="white">
                        <use xlink:href="#path-129"></use>
                    </mask>
                    <g id="Clip-228"></g>
                    <polygon id="Fill-227" fill="#FFDE85" mask="url(#mask-130)" points="-3 6.872 5.975 6.872 5.975 -3 -3 -3"></polygon>
                </g>
                <g id="Group-236" transform="translate(224.000000, 90.353000)" fill="#37414B">
                    <path d="M2.946,4.104 L0.639,4.104 C0.284,4.104 0,3.864 0,3.541 C0,3.241 0.284,3 0.639,3 L2.946,3 C3.301,3 3.587,3.241 3.587,3.541 C3.587,3.864 3.301,4.104 2.946,4.104" id="Fill-230"></path>
                    <path d="M9.395,7.424 C9.395,7.808 9.071,8.132 8.664,8.132 C8.28,8.132 7.956,7.808 7.956,7.424 L7.956,1.919 L6.997,2.914 C6.888,3.034 6.745,3.082 6.601,3.082 C6.289,3.082 6,2.819 6,2.483 C6,2.327 6.061,2.171 6.181,2.051 L7.968,0.24 C8.112,0.084 8.328,0 8.568,0 C9.011,0 9.395,0.348 9.395,0.804 L9.395,7.424 Z" id="Fill-232"></path>
                    <path d="M14.202,1.271 C12.919,1.271 12.451,2.603 12.451,4.125 C12.451,5.649 12.919,6.993 14.202,6.993 C15.497,6.993 15.953,5.649 15.953,4.125 C15.953,2.603 15.497,1.271 14.202,1.271 M14.202,8.263 C11.959,8.263 11,6.141 11,4.125 C11,2.099 11.959,0 14.202,0 C16.444,0 17.416,2.099 17.416,4.125 C17.416,6.141 16.444,8.263 14.202,8.263" id="Fill-234"></path>
                </g>
            </g>
            <g id="Icon-/-Zoom-In-Copy-2" transform="translate(130.000000, 58.972042) rotate(-135.000000) translate(-130.000000, -58.972042) translate(123.500000, 52.472042)" fill="#22272E">
                <g id="Icon-/-Zoom-Out" transform="translate(6.928932, 6.928932) scale(-1, -1) translate(-6.928932, -6.928932) translate(0.928932, 0.928932)">
                    <path d="M9,3 L11,3 C11.5522847,3 12,3.44771525 12,4 C12,4.55228475 11.5522847,5 11,5 L8,5 C7.44771525,5 7,4.55228475 7,4 L7,1 C7,0.44771525 7.44771525,1.01453063e-16 8,0 C8.55228475,-1.01453063e-16 9,0.44771525 9,1 L9,3 Z" id="Combined-Shape" transform="translate(9.500000, 2.500000) rotate(-180.000000) translate(-9.500000, -2.500000) "></path>
                    <rect id="Rectangle-2" x="3" y="7" width="2" height="5" rx="1"></rect>
                    <rect id="Rectangle-2" x="0" y="7" width="5" height="2" rx="1"></rect>
                </g>
            </g>
        </g>
    </g>
</svg>