<?xml version="1.0" encoding="UTF-8"?>
<svg width="245px" height="98px" viewBox="0 0 245 98" version="1.1" xmlns="http://www.w3.org/2000/svg" xmlns:xlink="http://www.w3.org/1999/xlink">
    <!-- Generator: Sketch 49.3 (51167) - http://www.bohemiancoding.com/sketch -->
    <title>coins-pg-1</title>
    <desc>Created with Sketch.</desc>
    <defs></defs>
    <g id="Page-1" stroke="none" stroke-width="1" fill="none" fill-rule="evenodd">
        <g id="coins-pg-1" transform="translate(1.000000, 1.000000)">
            <path d="M219.932769,0 L175.595387,0 C173.057345,0 171,2.07170516 171,4.62835334 L171,91.3716467 C171,93.9274034 173.057345,96 175.595387,96 L238.403728,96 C240.94177,96 243,93.9274034 243,91.3716467 L243,23.2291278 C243,22.0016157 242.515763,20.8231329 241.653519,19.9557623 L223.18256,1.35587932 C222.320317,0.48761735 221.151773,0 219.932769,0" id="Fill-17" fill="#FFFFFF"></path>
            <path d="M219.932769,0 L175.595387,0 C173.057345,0 171,2.07170516 171,4.62835334 L171,91.3716467 C171,93.9274034 173.057345,96 175.595387,96 L238.403728,96 C240.94177,96 243,93.9274034 243,91.3716467 L243,23.2291278 C243,22.0016157 242.515763,20.8231329 241.653519,19.9557623 L223.18256,1.35587932 C222.320317,0.48761735 221.151773,0 219.932769,0" id="Fill-17" fill="#FFFFFF"></path>
            <path d="M210.74337,47.0805687 C210.798118,47.0315956 210.873396,47 210.955518,47 L214.698888,47 C214.864842,47 215,47.1263823 215,47.2796209 C215,47.371248 214.953807,47.450237 214.88195,47.5023697 L209.388366,51.9178515 C209.333618,51.9684044 209.25834,52 209.174508,52 C209.085543,52 209.005133,51.9652449 208.950385,51.9083728 L207.0787,50.4044234 C207.030796,50.3554502 207,50.2890995 207,50.2164297 C207,50.1311216 207.042772,50.0537125 207.107784,50.0031596 L210.74337,47.0805687 Z" id="Fill-23" fill="#D5DAE0"></path>
            <path d="M210.74337,58.9194313 C210.798118,58.9684044 210.873396,59 210.955518,59 L214.698888,59 C214.864842,59 215,58.8751975 215,58.7203791 C215,58.6303318 214.953807,58.549763 214.88195,58.4976303 L209.388366,54.0821485 C209.333618,54.0315956 209.25834,54 209.174508,54 C209.085543,54 209.005133,54.0363349 208.950385,54.0916272 L207.0787,55.5955766 C207.030796,55.6461295 207,55.7109005 207,55.7835703 C207,55.8688784 207.042772,55.9462875 207.107784,55.9968404 L210.74337,58.9194313 Z" id="Fill-25" fill="#D5DAE0"></path>
            <path d="M202.094325,58.9269165 C202.04327,58.9729909 201.974098,59 201.898338,59 L198.289864,59 C198.130109,59 198,58.874487 198,58.720376 C198,58.6425261 198.032939,58.5726202 198.083995,58.5217794 L204.405001,53.2152787 C204.469232,53.164438 204.510406,53.0865881 204.510406,53.0007944 C204.510406,52.9181782 204.472526,52.8450947 204.416529,52.7942539 L198.103758,47.4956971 C198.039527,47.4432676 198,47.3670065 198,47.2812128 C198,47.125513 198.130109,47 198.289864,47 L201.898338,47 C201.974098,47 202.04327,47.0285979 202.095972,47.0746723 L208.901183,52.7878988 C208.96212,52.8387396 209,52.9150007 209,53.0007944 C209,53.0849993 208.96212,53.1612604 208.899536,53.2121012 L202.094325,58.9269165 Z" id="Fill-27" fill="#D5DAE0"></path>
            <path d="M219.932769,0 L175.595387,0 C173.057345,0 171,2.07170516 171,4.62835334 L171,91.3716467 C171,93.9274034 173.057345,96 175.595387,96 L238.403728,96 C240.94177,96 243,93.9274034 243,91.3716467 L243,23.2291278 C243,22.0016157 242.515763,20.8231329 241.653519,19.9557623 L223.18256,1.35587932 C222.320317,0.48761735 221.151773,0 219.932769,0 Z" id="Stroke-19" stroke="#37414B" stroke-width="2"></path>
            <path d="M239,17 L172,17 L172,5.16815239 C172,2.70092296 173.380358,1 175.907047,1 L220.412488,1 C221.819044,1 223.167434,1.54540567 224.162422,2.51664068 L239,17 Z" id="Fill-45" fill="#F2F4F6"></path>
            <path d="M222,1.72462069 L222,20.0876976 C222,21.1433328 222.856659,22 223.913206,22 L242.27519,22 C242.919988,22 243.242386,21.2207092 242.786423,20.7656622 L223.235247,1.21338379 C222.779284,0.757415737 222,1.08073854 222,1.72462069" id="Fill-49" fill="#F8F9FA"></path>
            <path d="M222,1.72462069 L222,20.0876976 C222,21.1433328 222.856659,22 223.913206,22 L242.27519,22 C242.919988,22 243.242386,21.2207092 242.786423,20.7656622 L223.235247,1.21338379 C222.779284,0.757415737 222,1.08073854 222,1.72462069 Z" id="Stroke-51" stroke="#37414B" stroke-width="2"></path>
            <path d="M90.3370513,60.2176269 L14.2890034,60.2176269 C13.3470208,60.2176269 12.4280837,60.5091167 11.6483795,61.0561593 L2.33129813,67.5877276 C1.02827027,68.5001307 0.248566044,70.0264593 0.248566044,71.659601 L0.248566044,91.0895943 C0.248566044,93.8018472 2.36298562,96 4.97192203,96 L99.6541326,96 C102.263069,96 104.378449,93.8018472 104.378449,91.0895943 L104.378449,71.659601 C104.378449,70.0264593 103.597784,68.5001307 102.295717,67.5877276 L92.9786354,61.0561593 C92.197971,60.5091167 91.2780736,60.2176269 90.3370513,60.2176269" id="Fill-1" fill="#F8F9FA"></path>
            <path d="M90.3370513,60.2176269 L14.2890034,60.2176269 C13.3470208,60.2176269 12.4280837,60.5091167 11.6483795,61.0561593 L2.33129813,67.5877276 C1.02827027,68.5001307 0.248566044,70.0264593 0.248566044,71.659601 L0.248566044,91.0895943 C0.248566044,93.8018472 2.36298562,96 4.97192203,96 L99.6541326,96 C102.263069,96 104.378449,93.8018472 104.378449,91.0895943 L104.378449,71.659601 C104.378449,70.0264593 103.597784,68.5001307 102.295717,67.5877276 L92.9786354,61.0561593 C92.197971,60.5091167 91.2780736,60.2176269 90.3370513,60.2176269 Z" id="Stroke-3" stroke="#37414B" stroke-width="2" fill="#FFFFFF"></path>
            <path d="M97.7938707,94.1776582 L5.18190919,94.1776582 C3.02523963,94.1776582 1.27570627,92.3598398 1.27570627,90.1177639 L1.27570627,71.9845011 C1.27570627,70.645844 2.31947288,69.5617414 3.60713712,69.5617414 L99.3686427,69.5617414 C100.655347,69.5617414 101.699113,70.645844 101.699113,71.9845011 L101.699113,90.1177639 C101.699113,92.3598398 99.9505402,94.1776582 97.7938707,94.1776582" id="Fill-5" fill="#F2F4F6"></path>
            <path d="M10,80 L10,81.8376758" id="Stroke-7" stroke="#9AA5B5" stroke-width="2" stroke-linecap="round"></path>
            <path d="M18,80 L18,82.7651604" id="Stroke-9" stroke="#9AA5B5" stroke-width="2" stroke-linecap="round"></path>
            <path d="M26,80 L26,83.7634132" id="Stroke-11" stroke="#9AA5B5" stroke-width="2" stroke-linecap="round"></path>
            <path d="M35,80 L35,84.7570546" id="Stroke-13" stroke="#9AA5B5" stroke-width="2" stroke-linecap="round"></path>
            <path d="M66,80 L66,84.7570546" id="Stroke-15" stroke="#9AA5B5" stroke-width="2" stroke-linecap="round"></path>
            <path d="M76,80 L76,83.7634132" id="Stroke-17" stroke="#9AA5B5" stroke-width="2" stroke-linecap="round"></path>
            <path d="M84,80 L84,82.7651604" id="Stroke-19" stroke="#9AA5B5" stroke-width="2" stroke-linecap="round"></path>
            <path d="M92,80 L92,81.7669075" id="Stroke-21" stroke="#9AA5B5" stroke-width="2" stroke-linecap="round"></path>
            <path d="M54.7336939,78.9567669 C54.7644212,78.925821 54.8066712,78.905856 54.8527621,78.905856 L56.9537385,78.905856 C57.0468805,78.905856 57.1227384,78.9857162 57.1227384,79.0825467 C57.1227384,79.1404454 57.0968123,79.190358 57.0564827,79.2233004 L53.9731943,82.0134171 C53.942467,82.0453611 53.900217,82.0653262 53.8531659,82.0653262 C53.8032341,82.0653262 53.7581034,82.0433646 53.7273762,82.0074275 L52.676888,81.0570908 C52.6500016,81.026145 52.6327175,80.9842184 52.6327175,80.9382987 C52.6327175,80.8843931 52.6567232,80.8354787 52.6932118,80.8035346 L54.7336939,78.9567669 Z" id="Fill-23" fill="#37414B"></path>
            <path d="M54.7336939,86.1673551 C54.7644212,86.1983009 54.8066712,86.218266 54.8527621,86.218266 L56.9537385,86.218266 C57.0468805,86.218266 57.1227384,86.139404 57.1227384,86.0415752 C57.1227384,85.9846748 57.0968123,85.9337639 57.0564827,85.9008216 L53.9731943,83.1107049 C53.942467,83.0787608 53.900217,83.0587957 53.8531659,83.0587957 C53.8032341,83.0587957 53.7581034,83.0817556 53.7273762,83.1166944 L52.676888,84.0670311 C52.6500016,84.0989752 52.6327175,84.1399036 52.6327175,84.1858232 C52.6327175,84.2397289 52.6567232,84.2886432 52.6932118,84.3205873 L54.7336939,86.1673551 Z" id="Fill-25" fill="#37414B"></path>
            <path d="M48.8570002,86.39974 C48.8272332,86.4286894 48.7869036,86.4456597 48.7427332,86.4456597 L46.6388761,86.4456597 C46.5457341,86.4456597 46.4698762,86.3667977 46.4698762,86.2699672 C46.4698762,86.2210528 46.4890807,86.1771297 46.5188478,86.1451856 L50.2041985,82.8110211 C50.2416473,82.779077 50.265653,82.7301626 50.265653,82.6762569 C50.265653,82.6243478 50.2435678,82.5784282 50.2109201,82.5464841 L46.5303705,79.2173108 C46.4929216,79.1843685 46.4698762,79.1364524 46.4698762,79.0825467 C46.4698762,78.9847179 46.5457341,78.905856 46.6388761,78.905856 L48.7427332,78.905856 C48.7869036,78.905856 48.8272332,78.9238245 48.8579604,78.9527738 L52.8256179,82.5424911 C52.8611463,82.5744352 52.8832315,82.6223513 52.8832315,82.6762569 C52.8832315,82.7291643 52.8611463,82.7770805 52.8246576,82.8090246 L48.8570002,86.39974 Z" id="Fill-27" fill="#37414B"></path>
            <path d="M90.3370513,30.1088135 L14.2890034,30.1088135 C13.3470208,30.1088135 12.4280837,30.4003033 11.6483795,30.9473458 L2.33129813,37.4789142 C1.02827027,38.3913173 0.248566044,39.9176459 0.248566044,41.5507875 L0.248566044,60.9807808 C0.248566044,63.6930338 2.36298562,65.8911865 4.97192203,65.8911865 L99.6541326,65.8911865 C102.263069,65.8911865 104.378449,63.6930338 104.378449,60.9807808 L104.378449,41.5507875 C104.378449,39.9176459 103.597784,38.3913173 102.295717,37.4789142 L92.9786354,30.9473458 C92.197971,30.4003033 91.2780736,30.1088135 90.3370513,30.1088135" id="Fill-1-Copy" fill="#F8F9FA"></path>
            <path d="M90.3370513,30.1088135 L14.2890034,30.1088135 C13.3470208,30.1088135 12.4280837,30.4003033 11.6483795,30.9473458 L2.33129813,37.4789142 C1.02827027,38.3913173 0.248566044,39.9176459 0.248566044,41.5507875 L0.248566044,60.9807808 C0.248566044,63.6930338 2.36298562,65.8911865 4.97192203,65.8911865 L99.6541326,65.8911865 C102.263069,65.8911865 104.378449,63.6930338 104.378449,60.9807808 L104.378449,41.5507875 C104.378449,39.9176459 103.597784,38.3913173 102.295717,37.4789142 L92.9786354,30.9473458 C92.197971,30.4003033 91.2780736,30.1088135 90.3370513,30.1088135 Z" id="Stroke-3-Copy" stroke="#37414B" stroke-width="2" fill="#FFFFFF"></path>
            <path d="M97.7938707,65.1070797 L5.18190919,65.1070797 C3.02523963,65.1070797 1.27570627,63.2892613 1.27570627,61.0471854 L1.27570627,42.9139226 C1.27570627,41.5752655 2.31947288,40.4911629 3.60713712,40.4911629 L99.3686427,40.4911629 C100.655347,40.4911629 101.699113,41.5752655 101.699113,42.9139226 L101.699113,61.0471854 C101.699113,63.2892613 99.9505402,65.1070797 97.7938707,65.1070797" id="Fill-5-Copy" fill="#F2F4F6"></path>
            <path d="M10,50 L10,51.8376758" id="Stroke-7-Copy" stroke="#9AA5B5" stroke-width="2" stroke-linecap="round"></path>
            <path d="M18,50 L18,52.7651604" id="Stroke-9-Copy" stroke="#9AA5B5" stroke-width="2" stroke-linecap="round"></path>
            <path d="M26,50 L26,53.7634132" id="Stroke-11-Copy" stroke="#9AA5B5" stroke-width="2" stroke-linecap="round"></path>
            <path d="M35,50 L35,54.7570546" id="Stroke-13-Copy" stroke="#9AA5B5" stroke-width="2" stroke-linecap="round"></path>
            <path d="M66,50 L66,54.7570546" id="Stroke-15-Copy" stroke="#9AA5B5" stroke-width="2" stroke-linecap="round"></path>
            <path d="M76,50 L76,53.7634132" id="Stroke-17-Copy" stroke="#9AA5B5" stroke-width="2" stroke-linecap="round"></path>
            <path d="M84,50 L84,52.7651604" id="Stroke-19-Copy" stroke="#9AA5B5" stroke-width="2" stroke-linecap="round"></path>
            <path d="M92,50 L92,51.7669075" id="Stroke-21-Copy" stroke="#9AA5B5" stroke-width="2" stroke-linecap="round"></path>
            <path d="M54.7336939,48.8479534 C54.7644212,48.8170076 54.8066712,48.7970425 54.8527621,48.7970425 L56.9537385,48.7970425 C57.0468805,48.7970425 57.1227384,48.8769027 57.1227384,48.9737333 C57.1227384,49.0316319 57.0968123,49.0815446 57.0564827,49.1144869 L53.9731943,51.9046036 C53.942467,51.9365477 53.900217,51.9565127 53.8531659,51.9565127 C53.8032341,51.9565127 53.7581034,51.9345512 53.7273762,51.8986141 L52.676888,50.9482774 C52.6500016,50.9173315 52.6327175,50.8754049 52.6327175,50.8294853 C52.6327175,50.7755796 52.6567232,50.7266652 52.6932118,50.6947212 L54.7336939,48.8479534 Z" id="Fill-23-Copy" fill="#37414B"></path>
            <path d="M54.7336939,56.0585416 C54.7644212,56.0894875 54.8066712,56.1094525 54.8527621,56.1094525 L56.9537385,56.1094525 C57.0468805,56.1094525 57.1227384,56.0305906 57.1227384,55.9327618 C57.1227384,55.8758614 57.0968123,55.8249505 57.0564827,55.7920081 L53.9731943,53.0018914 C53.942467,52.9699473 53.900217,52.9499823 53.8531659,52.9499823 C53.8032341,52.9499823 53.7581034,52.9729421 53.7273762,53.007881 L52.676888,53.9582177 C52.6500016,53.9901618 52.6327175,54.0310901 52.6327175,54.0770097 C52.6327175,54.1309154 52.6567232,54.1798298 52.6932118,54.2117739 L54.7336939,56.0585416 Z" id="Fill-25-Copy" fill="#37414B"></path>
            <path d="M48.8570002,56.2909266 C48.8272332,56.3198759 48.7869036,56.3368462 48.7427332,56.3368462 L46.6388761,56.3368462 C46.5457341,56.3368462 46.4698762,56.2579842 46.4698762,56.1611537 C46.4698762,56.1122393 46.4890807,56.0683162 46.5188478,56.0363721 L50.2041985,52.7022076 C50.2416473,52.6702635 50.265653,52.6213491 50.265653,52.5674435 C50.265653,52.5155343 50.2435678,52.4696147 50.2109201,52.4376706 L46.5303705,49.1084974 C46.4929216,49.075555 46.4698762,49.0276389 46.4698762,48.9737333 C46.4698762,48.8759045 46.5457341,48.7970425 46.6388761,48.7970425 L48.7427332,48.7970425 C48.7869036,48.7970425 48.8272332,48.8150111 48.8579604,48.8439604 L52.8256179,52.4336776 C52.8611463,52.4656217 52.8832315,52.5135378 52.8832315,52.5674435 C52.8832315,52.6203509 52.8611463,52.668267 52.8246576,52.7002111 L48.8570002,56.2909266 Z" id="Fill-27-Copy" fill="#37414B"></path>
            <path d="M90.3370513,0 L14.2890034,0 C13.3470208,0 12.4280837,0.29148983 11.6483795,0.838532386 L2.33129813,7.37010072 C1.02827027,8.28250382 0.248566044,9.80883241 0.248566044,11.4419741 L0.248566044,30.8719674 C0.248566044,33.5842203 2.36298562,35.7823731 4.97192203,35.7823731 L99.6541326,35.7823731 C102.263069,35.7823731 104.378449,33.5842203 104.378449,30.8719674 L104.378449,11.4419741 C104.378449,9.80883241 103.597784,8.28250382 102.295717,7.37010072 L92.9786354,0.838532386 C92.197971,0.29148983 91.2780736,0 90.3370513,0" id="Fill-1-Copy-2" fill="#F8F9FA"></path>
            <path d="M90.3370513,0 L14.2890034,0 C13.3470208,0 12.4280837,0.29148983 11.6483795,0.838532386 L2.33129813,7.37010072 C1.02827027,8.28250382 0.248566044,9.80883241 0.248566044,11.4419741 L0.248566044,30.8719674 C0.248566044,33.5842203 2.36298562,35.7823731 4.97192203,35.7823731 L99.6541326,35.7823731 C102.263069,35.7823731 104.378449,33.5842203 104.378449,30.8719674 L104.378449,11.4419741 C104.378449,9.80883241 103.597784,8.28250382 102.295717,7.37010072 L92.9786354,0.838532386 C92.197971,0.29148983 91.2780736,0 90.3370513,0 Z" id="Stroke-3-Copy-2" stroke="#37414B" stroke-width="2" fill="#FFFFFF"></path>
            <path d="M97.7938707,34.9982663 L5.18190919,34.9982663 C3.02523963,34.9982663 1.27570627,33.1804478 1.27570627,30.938372 L1.27570627,12.8051091 C1.27570627,11.4664521 2.31947288,10.3823495 3.60713712,10.3823495 L99.3686427,10.3823495 C100.655347,10.3823495 101.699113,11.4664521 101.699113,12.8051091 L101.699113,30.938372 C101.699113,33.1804478 99.9505402,34.9982663 97.7938707,34.9982663" id="Fill-5-Copy-2" fill="#F2F4F6"></path>
            <path d="M10,21 L10,22.8376758" id="Stroke-7-Copy-2" stroke="#9AA5B5" stroke-width="2" stroke-linecap="round"></path>
            <path d="M18,21 L18,23.7651604" id="Stroke-9-Copy-2" stroke="#9AA5B5" stroke-width="2" stroke-linecap="round"></path>
            <path d="M26,21 L26,24.7634132" id="Stroke-11-Copy-2" stroke="#9AA5B5" stroke-width="2" stroke-linecap="round"></path>
            <path d="M35,21 L35,25.7570546" id="Stroke-13-Copy-2" stroke="#9AA5B5" stroke-width="2" stroke-linecap="round"></path>
            <path d="M66,21 L66,25.7570546" id="Stroke-15-Copy-2" stroke="#9AA5B5" stroke-width="2" stroke-linecap="round"></path>
            <path d="M76,21 L76,24.7634132" id="Stroke-17-Copy-2" stroke="#9AA5B5" stroke-width="2" stroke-linecap="round"></path>
            <path d="M84,21 L84,23.7651604" id="Stroke-19-Copy-2" stroke="#9AA5B5" stroke-width="2" stroke-linecap="round"></path>
            <path d="M92,21 L92,22.7669075" id="Stroke-21-Copy-2" stroke="#9AA5B5" stroke-width="2" stroke-linecap="round"></path>
            <path d="M54.7336939,19.7773749 C54.7644212,19.746429 54.8066712,19.726464 54.8527621,19.726464 L56.9537385,19.726464 C57.0468805,19.726464 57.1227384,19.8063242 57.1227384,19.9031547 C57.1227384,19.9610534 57.0968123,20.0109661 57.0564827,20.0439084 L53.9731943,22.8340251 C53.942467,22.8659692 53.900217,22.8859342 53.8531659,22.8859342 C53.8032341,22.8859342 53.7581034,22.8639727 53.7273762,22.8280356 L52.676888,21.8776989 C52.6500016,21.846753 52.6327175,21.8048264 52.6327175,21.7589068 C52.6327175,21.7050011 52.6567232,21.6560867 52.6932118,21.6241426 L54.7336939,19.7773749 Z" id="Fill-23-Copy-2" fill="#37414B"></path>
            <path d="M54.7336939,26.9497282 C54.7644212,26.980674 54.8066712,27.0006391 54.8527621,27.0006391 L56.9537385,27.0006391 C57.0468805,27.0006391 57.1227384,26.9217771 57.1227384,26.8239483 C57.1227384,26.7670479 57.0968123,26.716137 57.0564827,26.6831947 L53.9731943,23.893078 C53.942467,23.8611339 53.900217,23.8411688 53.8531659,23.8411688 C53.8032341,23.8411688 53.7581034,23.8641286 53.7273762,23.8990675 L52.676888,24.8494042 C52.6500016,24.8813483 52.6327175,24.9222767 52.6327175,24.9681963 C52.6327175,25.0221019 52.6567232,25.0710163 52.6932118,25.1029604 L54.7336939,26.9497282 Z" id="Fill-25-Copy-2" fill="#37414B"></path>
            <path d="M48.8570002,27.2203481 C48.8272332,27.2492974 48.7869036,27.2662677 48.7427332,27.2662677 L46.6388761,27.2662677 C46.5457341,27.2662677 46.4698762,27.1874057 46.4698762,27.0905752 C46.4698762,27.0416608 46.4890807,26.9977377 46.5188478,26.9657936 L50.2041985,23.6316291 C50.2416473,23.599685 50.265653,23.5507706 50.265653,23.496865 C50.265653,23.4449558 50.2435678,23.3990362 50.2109201,23.3670921 L46.5303705,20.0379189 C46.4929216,20.0049765 46.4698762,19.9570604 46.4698762,19.9031547 C46.4698762,19.805326 46.5457341,19.726464 46.6388761,19.726464 L48.7427332,19.726464 C48.7869036,19.726464 48.8272332,19.7444325 48.8579604,19.7733819 L52.8256179,23.3630991 C52.8611463,23.3950432 52.8832315,23.4429593 52.8832315,23.496865 C52.8832315,23.5497724 52.8611463,23.5976885 52.8246576,23.6296326 L48.8570002,27.2203481 Z" id="Fill-27-Copy-2" fill="#37414B"></path>
        </g>
    </g>
</svg>