<?xml version="1.0" encoding="UTF-8"?>
<svg width="225px" height="86px" viewBox="0 0 225 86" version="1.1" xmlns="http://www.w3.org/2000/svg" xmlns:xlink="http://www.w3.org/1999/xlink">
    <!-- Generator: Sketch 49.3 (51167) - http://www.bohemiancoding.com/sketch -->
    <title>coins-pg-4</title>
    <desc>Created with Sketch.</desc>
    <defs>
        <path d="M0.815985721,17.7455154 L0.815985721,25.2049876 C0.882316597,33.318644 14.907362,41.1721765 32.1893659,41.1079756 C49.4702456,41.1079756 63.361505,33.2544432 63.4278359,25.1396798 L63.4278359,17.6791007 C63.4278359,8.19066099 49.3364596,0.467744037 32.0555799,0.467744037 C14.773576,0.467744037 0.815985721,8.25486182 0.815985721,17.7455154 Z" id="path-1"></path>
        <path d="M0.437828612,17.6813539 L0.437828612,25.1429137 C0.504159488,33.2587438 13.9074935,41.1775178 31.1894974,41.1133085 C48.470377,41.1133085 62.3616365,33.2587438 62.4279673,25.1429137 L62.4279673,17.6813539 C62.4279673,8.19166696 48.336591,0.467734845 31.0557114,0.467734845 C13.7737075,0.467734845 0.437828612,8.19166696 0.437828612,17.6813539 Z" id="path-3"></path>
        <path d="M0.181495995,16.712873 C0.181495995,25.8835828 13.7377283,33.2961314 30.3631689,33.2342865 C46.9897338,33.2342865 60.4178014,25.8206335 60.4178014,16.6499238 C60.4178014,7.54216327 46.8626933,0.129614637 30.2372527,0.129614637 C13.6095635,0.129614637 0.181495995,7.60511251 0.181495995,16.712873 Z" id="path-5"></path>
        <path d="M0.207922665,12.7671244 C0.275377793,19.6772235 11.5089052,25.2187569 25.2675029,25.2187569 C39.0261005,25.2187569 50.1921728,19.6121588 50.1921728,12.7009568 C50.1258419,5.85481967 38.9597697,0.248221529 25.1337169,0.248221529 C11.3751192,0.248221529 0.207922665,5.85481967 0.207922665,12.7671244 Z" id="path-7"></path>
        <path d="M18.783201,0.956289572 C18.6505393,0.956289572 18.5842084,0.956289572 18.5178775,1.02137255 L14.0647148,3.95562205 C13.9972597,4.02180812 13.9309288,4.0868911 13.9309288,4.15197408 C13.9309288,4.21705706 13.9309288,4.28214003 13.9972597,4.34722301 L16.3244616,5.8474408 C16.3907925,5.8474408 16.4571234,5.91252378 16.5897851,5.91252378 C16.7224469,5.91252378 16.789902,5.91252378 16.8551086,5.8474408 L23.7692593,1.41297352 C23.8355902,1.41297352 23.901921,1.28280756 23.901921,1.21772458 C23.901921,1.08645553 23.7018042,0.956289572 23.5028115,0.956289572 L18.783201,0.956289572 Z M1.03688102,0.956289572 C0.83676414,0.956289572 0.637771511,1.08645553 0.637771511,1.21772458 C0.637771511,1.28280756 0.704102387,1.34789054 0.771557516,1.41297352 L8.94599482,6.69462261 C9.0123257,6.76080869 9.07865658,6.82589167 9.07865658,6.89207774 C9.07865658,6.95605762 9.0123257,7.0211406 8.94599482,7.08732668 L0.704102387,12.3689758 C0.637771511,12.4340587 0.571440635,12.5002448 0.571440635,12.5653278 C0.571440635,12.6954938 0.771557516,12.8256597 0.969425892,12.8256597 L5.69016063,12.8256597 C5.82282238,12.8256597 5.888029,12.8256597 5.95548413,12.7605767 L14.8606853,7.08732668 C14.9292647,7.0211406 14.9944713,6.95605762 14.9944713,6.89207774 C14.9944713,6.82589167 14.9292647,6.76080869 14.8606853,6.69462261 L6.02069076,1.02137255 C5.95548413,0.956289572 5.82282238,0.956289572 5.75536725,0.956289572 L1.03688102,0.956289572 Z M16.1906756,7.93450849 L13.8645979,9.43472627 C13.8645979,9.49980925 13.7982671,9.56489223 13.7982671,9.63107831 C13.7982671,9.69505818 13.8645979,9.76124426 13.9309288,9.82522414 L18.5178775,12.7605767 C18.5842084,12.8256597 18.7168702,12.8256597 18.6505393,12.8256597 L23.3701498,12.8256597 C23.5691424,12.8256597 23.7692593,12.6954938 23.7692593,12.5653278 C23.7692593,12.5002448 23.7018042,12.4340587 23.6354733,12.3689758 L16.7224469,7.93450849 C16.6572402,7.86942551 16.5897851,7.86942551 16.4571234,7.86942551 C16.3907925,7.86942551 16.2581307,7.86942551 16.1906756,7.93450849 Z" id="path-9"></path>
        <path d="M0.044748192,3.96410153 L0.340426505,8.08004868 C0.275219881,8.08004868 1.18361561,11.4751174 5.58393848,15.0683158 C5.71660024,14.8690667 5.58393848,8.68003444 5.58393848,8.51324736 C3.98412769,7.2998433 0.529300864,3.45142712 0.340426505,0.26344304 L0.044748192,3.96410153 Z" id="path-11"></path>
        <path d="M0.502335012,10.3331311 C0.502335012,10.634418 0.36967326,16.7139178 0.502335012,16.9121623 C4.94537947,13.3067995 5.0431894,11.718603 5.85489945,9.5748737 L5.85489945,4.54483808 L5.85489945,0.292100336 C5.4096956,7.25866046 0.502335012,10.0318442 0.502335012,10.3331311 Z" id="path-13"></path>
        <path d="M0.251531681,3.92123048 L0.251531681,10.159373 C4.86658671,8.68370737 7.29946834,7.74191168 7.54567956,7.33398597 C7.53218854,4.36370727 7.53218854,2.2338001 7.54567956,0.943149912 C5.23646567,2.22376914 2.8373116,3.29262365 0.251531681,3.92123048 Z" id="path-15"></path>
        <path d="M0.477558814,17.7021513 L0.477558814,25.2784864 C0.54388969,33.5192546 14.5689351,41.4958235 31.850939,41.4306169 C49.1318187,41.4306169 63.0230781,33.454048 63.089409,25.2121556 L63.089409,17.6346961 C63.089409,7.9976068 48.9980327,0.153699621 31.717153,0.153699621 C14.4351491,0.153699621 0.477558814,8.06281342 0.477558814,17.7021513 Z" id="path-17"></path>
        <path d="M0.0992702467,17.6346961 L0.0992702467,25.2121556 C0.165601123,33.454048 13.5689351,41.4958235 30.850939,41.4306169 C48.1318187,41.4306169 62.0230781,33.454048 62.089409,25.2121556 L62.089409,17.6346961 C62.089409,7.9976068 47.9980327,0.153699621 30.717153,0.153699621 C13.4351491,0.153699621 0.0992702467,7.9976068 0.0992702467,17.6346961 Z" id="path-19"></path>
        <path d="M0.806424842,17.6999028 C0.806424842,27.0356925 14.3626571,34.5816729 30.9880978,34.5187148 C47.6146627,34.5187148 61.0427302,26.9716102 61.0427302,17.6358204 C61.0427302,8.364113 47.4876222,0.818132636 30.8621815,0.818132636 C14.2344924,0.818132636 0.806424842,8.42819537 0.806424842,17.6999028 Z" id="path-21"></path>
        <path d="M0.791358829,13.7021513 C0.858813958,20.7467152 12.0923413,26.3960822 25.850939,26.3960822 C39.6095367,26.3960822 50.775609,20.6803843 50.775609,13.6346961 C50.7092781,6.65533886 39.5432058,0.93964098 25.717153,0.93964098 C11.9585553,0.93964098 0.791358829,6.65533886 0.791358829,13.7021513 Z" id="path-23"></path>
        <path d="M18.2974008,0.652550505 C18.164739,0.652550505 18.0984082,0.652550505 18.0320773,0.718881381 L13.5789146,3.70939207 C13.5114594,3.7768472 13.4451286,3.84317808 13.4451286,3.90950895 C13.4451286,3.97583983 13.4451286,4.04217071 13.5114594,4.10850158 L15.8386614,5.63748449 C15.9049922,5.63748449 15.9713231,5.70381537 16.1039849,5.70381537 C16.2366466,5.70381537 16.3041017,5.70381537 16.3693084,5.63748449 L23.283459,1.11799089 C23.3497899,1.11799089 23.4161208,0.985329138 23.4161208,0.918998262 C23.4161208,0.785212257 23.2160039,0.652550505 23.0170113,0.652550505 L18.2974008,0.652550505 Z M0.551080765,0.652550505 C0.350963885,0.652550505 0.151971256,0.785212257 0.151971256,0.918998262 C0.151971256,0.985329138 0.218302132,1.05166001 0.28575726,1.11799089 L8.46019457,6.50091013 C8.52652544,6.56836526 8.59285632,6.63469614 8.59285632,6.70215127 C8.59285632,6.76735789 8.52652544,6.83368877 8.46019457,6.9011439 L0.218302132,12.2840631 C0.151971256,12.350394 0.0856403796,12.4178491 0.0856403796,12.48418 C0.0856403796,12.6168418 0.28575726,12.7495035 0.483625637,12.7495035 L5.20436037,12.7495035 C5.33702212,12.7495035 5.40222875,12.7495035 5.46968388,12.6831727 L14.3748851,6.9011439 C14.4434645,6.83368877 14.5086711,6.76735789 14.5086711,6.70215127 C14.5086711,6.63469614 14.4434645,6.56836526 14.3748851,6.50091013 L5.5348905,0.718881381 C5.46968388,0.652550505 5.33702212,0.652550505 5.269567,0.652550505 L0.551080765,0.652550505 Z M15.7048754,7.76456954 L13.3787977,9.29355245 C13.3787977,9.35988333 13.3124668,9.4262142 13.3124668,9.49366933 C13.3124668,9.55887595 13.3787977,9.62633108 13.4451286,9.69153771 L18.0320773,12.6831727 C18.0984082,12.7495035 18.2310699,12.7495035 18.164739,12.7495035 L22.8843495,12.7495035 C23.0833421,12.7495035 23.283459,12.6168418 23.283459,12.48418 C23.283459,12.4178491 23.2160039,12.350394 23.149673,12.2840631 L16.2366466,7.76456954 C16.17144,7.69823866 16.1039849,7.69823866 15.9713231,7.69823866 C15.9049922,7.69823866 15.7723305,7.69823866 15.7048754,7.76456954 Z" id="path-25"></path>
        <path d="M0.568083389,4.67584273 L0.863761702,8.80971785 C0.798555078,8.80971785 1.70695081,12.2195746 6.10727368,15.828424 C6.23993543,15.6283071 6.10727368,9.412317 6.10727368,9.24480343 C4.50746289,8.02611411 1.05263606,4.16093525 0.863761702,0.95906516 L0.568083389,4.67584273 Z" id="path-27"></path>
        <path d="M1.03418695,11.0660473 C1.03418695,11.3684712 0.901525194,17.4709118 1.03418695,17.6699044 C5.4772314,14.0509368 5.57504134,12.4567472 6.38675138,10.3049286 L6.38675138,5.25591228 L6.38675138,0.987126907 C5.94154754,7.97997522 1.03418695,10.7636235 1.03418695,11.0660473 Z" id="path-29"></path>
        <path d="M0.748943969,3.64458645 L0.748943969,9.93702568 C5.363999,8.44851585 7.79688063,7.49852279 8.04309185,7.08704651 C8.02960083,4.09091455 8.02960083,1.94246872 8.04309185,0.640584738 C5.73387796,1.93235045 3.33472389,3.01050825 0.748943969,3.64458645 Z" id="path-31"></path>
        <path d="M0.799002238,17.9625141 L0.799002238,25.5388493 C0.865333114,33.7796175 14.8903786,41.7561864 32.1723824,41.6909798 C49.4532621,41.6909798 63.3445215,33.7144109 63.4108524,25.4725184 L63.4108524,17.895059 C63.4108524,8.25796967 49.3194761,0.414062493 32.0385964,0.414062493 C14.7565926,0.414062493 0.799002238,8.3231763 0.799002238,17.9625141 Z" id="path-33"></path>
        <path d="M0.420713671,17.895059 L0.420713671,25.4725184 C0.487044547,33.7144109 13.8903786,41.7561864 31.1723824,41.6909798 C48.4532621,41.6909798 62.3445215,33.7144109 62.4108524,25.4725184 L62.4108524,17.895059 C62.4108524,8.25796967 48.3194761,0.414062493 31.0385964,0.414062493 C13.7565926,0.414062493 0.420713671,8.25796967 0.420713671,17.895059 Z" id="path-35"></path>
        <path d="M0.127868267,16.9602656 C0.127868267,26.2960554 13.6841006,33.8420358 30.3095412,33.7790776 C46.9361061,33.7790776 60.3641737,26.231973 60.3641737,16.8961833 C60.3641737,7.62447587 46.8090656,0.0784955077 30.183625,0.0784955077 C13.5559358,0.0784955077 0.127868267,7.68855824 0.127868267,16.9602656 Z" id="path-37"></path>
        <path d="M0.112802253,12.9625141 C0.180257382,20.007078 11.4137848,25.656445 25.1723824,25.656445 C38.9309801,25.656445 50.0970524,19.9407472 50.0970524,12.895059 C50.0307215,5.91570173 38.8646493,0.200003851 25.0385964,0.200003851 C11.2799988,0.200003851 0.112802253,5.91570173 0.112802253,12.9625141 Z" id="path-39"></path>
        <path d="M18.6188442,0.912913377 C18.4861825,0.912913377 18.4198516,0.912913377 18.3535207,0.979244253 L13.900358,3.96975494 C13.8329029,4.03721007 13.766572,4.10354095 13.766572,4.16987183 C13.766572,4.2362027 13.766572,4.30253358 13.8329029,4.36886445 L16.1601048,5.89784736 C16.2264357,5.89784736 16.2927665,5.96417824 16.4254283,5.96417824 C16.55809,5.96417824 16.6255452,5.96417824 16.6907518,5.89784736 L23.6049025,1.37835376 C23.6712333,1.37835376 23.7375642,1.24569201 23.7375642,1.17936113 C23.7375642,1.04557513 23.5374473,0.912913377 23.3384547,0.912913377 L18.6188442,0.912913377 Z M0.87252419,0.912913377 C0.672407309,0.912913377 0.47341468,1.04557513 0.47341468,1.17936113 C0.47341468,1.24569201 0.539745556,1.31202289 0.607200685,1.37835376 L8.78163799,6.76127301 C8.84796887,6.82872814 8.91429974,6.89505901 8.91429974,6.96251414 C8.91429974,7.02772076 8.84796887,7.09405164 8.78163799,7.16150677 L0.539745556,12.544426 C0.47341468,12.6107569 0.407083804,12.678212 0.407083804,12.7445429 C0.407083804,12.8772046 0.607200685,13.0098664 0.805069061,13.0098664 L5.5258038,13.0098664 C5.65846555,13.0098664 5.72367217,13.0098664 5.7911273,12.9435355 L14.6963285,7.16150677 C14.7649079,7.09405164 14.8301145,7.02772076 14.8301145,6.96251414 C14.8301145,6.89505901 14.7649079,6.82872814 14.6963285,6.76127301 L5.85633392,0.979244253 C5.7911273,0.912913377 5.65846555,0.912913377 5.59101042,0.912913377 L0.87252419,0.912913377 Z M16.0263188,8.02493241 L13.7002411,9.55391532 C13.7002411,9.6202462 13.6339102,9.68657707 13.6339102,9.7540322 C13.6339102,9.81923883 13.7002411,9.88669395 13.766572,9.95190058 L18.3535207,12.9435355 C18.4198516,13.0098664 18.5525133,13.0098664 18.4861825,13.0098664 L23.2057929,13.0098664 C23.4047856,13.0098664 23.6049025,12.8772046 23.6049025,12.7445429 C23.6049025,12.678212 23.5374473,12.6107569 23.4711164,12.544426 L16.55809,8.02493241 C16.4928834,7.95860154 16.4254283,7.95860154 16.2927665,7.95860154 C16.2264357,7.95860154 16.0937739,7.95860154 16.0263188,8.02493241 Z" id="path-41"></path>
        <path d="M0.889526813,3.93620561 L1.18520513,8.07008072 C1.1199985,8.07008072 2.02839423,11.4799375 6.4287171,15.0887868 C6.56137886,14.8886699 6.4287171,8.67267987 6.4287171,8.5051663 C4.82890631,7.28647698 1.37407949,3.42129813 1.18520513,0.219428032 L0.889526813,3.93620561 Z" id="path-43"></path>
        <path d="M0.355630371,10.3264102 C0.355630371,10.628834 0.222968618,16.7312746 0.355630371,16.9302673 C4.79867483,13.3112996 4.89648476,11.7171101 5.70819481,9.56529151 L5.70819481,4.51627515 L5.70819481,0.247489779 C5.26299096,7.24033809 0.355630371,10.0239864 0.355630371,10.3264102 Z" id="path-45"></path>
        <path d="M0.0703873936,3.90494933 L0.0703873936,10.1973886 C4.68544243,8.70887872 7.11832406,7.75888566 7.36453528,7.34740938 C7.35104425,4.35127743 7.35104425,2.20283159 7.36453528,0.90094761 C5.05532138,2.19271332 2.65616731,3.27087112 0.0703873936,3.90494933 Z" id="path-47"></path>
        <path d="M0.79940298,17.8703755 L0.79940298,25.4467106 C0.865733856,33.6874788 14.8907793,41.6640478 32.1727832,41.5988411 C49.4536628,41.5988411 63.3449223,33.6222722 63.4112531,25.3803798 L63.4112531,17.8029204 C63.4112531,8.16583101 49.3198768,0.321923834 32.0389972,0.321923834 C14.7569933,0.321923834 0.79940298,8.23103764 0.79940298,17.8703755 Z" id="path-49"></path>
        <path d="M0.421114413,17.8029204 L0.421114413,25.3803798 C0.48744529,33.6222722 13.8907793,41.6640478 31.1727832,41.5988411 C48.4536628,41.5988411 62.3449223,33.6222722 62.4112531,25.3803798 L62.4112531,17.8029204 C62.4112531,8.16583101 48.3198768,0.321923834 31.0389972,0.321923834 C13.7569933,0.321923834 0.421114413,8.16583101 0.421114413,17.8029204 Z" id="path-51"></path>
        <path d="M0.128269009,17.868127 C0.128269009,27.2039167 13.6845013,34.7498971 30.3099419,34.686939 C46.9365068,34.686939 60.3645744,27.1398344 60.3645744,17.8040446 C60.3645744,8.53233721 46.8094663,0.986356848 30.1840257,0.986356848 C13.5563366,0.986356848 0.128269009,8.59641958 0.128269009,17.868127 Z" id="path-53"></path>
        <path d="M0.113202996,12.8703755 C0.180658124,19.9149394 11.4141855,25.5643064 25.1727832,25.5643064 C38.9313809,25.5643064 50.0974531,19.8486085 50.0974531,12.8029204 C50.0311222,5.82356307 38.86505,0.107865192 25.0389972,0.107865192 C11.2803995,0.107865192 0.113202996,5.82356307 0.113202996,12.8703755 Z" id="path-55"></path>
        <path d="M18.619245,0.820774717 C18.4865832,0.820774717 18.4202523,0.820774717 18.3539215,0.887105593 L13.9007587,3.87761628 C13.8333036,3.94507141 13.7669727,4.01140229 13.7669727,4.07773317 C13.7669727,4.14406404 13.7669727,4.21039492 13.8333036,4.27672579 L16.1605055,5.8057087 C16.2268364,5.8057087 16.2931673,5.87203958 16.425829,5.87203958 C16.5584908,5.87203958 16.6259459,5.87203958 16.6911525,5.8057087 L23.6053032,1.2862151 C23.6716341,1.2862151 23.7379649,1.15355335 23.7379649,1.08722247 C23.7379649,0.95343647 23.5378481,0.820774717 23.3388554,0.820774717 L18.619245,0.820774717 Z M0.872924932,0.820774717 C0.672808051,0.820774717 0.473815422,0.95343647 0.473815422,1.08722247 C0.473815422,1.15355335 0.540146299,1.21988423 0.607601427,1.2862151 L8.78203873,6.66913435 C8.84836961,6.73658948 8.91470049,6.80292035 8.91470049,6.87037548 C8.91470049,6.9355821 8.84836961,7.00191298 8.78203873,7.06936811 L0.540146299,12.4522874 C0.473815422,12.5186182 0.407484546,12.5860734 0.407484546,12.6524042 C0.407484546,12.785066 0.607601427,12.9177277 0.805469804,12.9177277 L5.52620454,12.9177277 C5.65886629,12.9177277 5.72407291,12.9177277 5.79152804,12.8513969 L14.6967292,7.06936811 C14.7653086,7.00191298 14.8305152,6.9355821 14.8305152,6.87037548 C14.8305152,6.80292035 14.7653086,6.73658948 14.6967292,6.66913435 L5.85673467,0.887105593 C5.79152804,0.820774717 5.65886629,0.820774717 5.59141116,0.820774717 L0.872924932,0.820774717 Z M16.0267195,7.93279375 L13.7006418,9.46177666 C13.7006418,9.52810754 13.634311,9.59443841 13.634311,9.66189354 C13.634311,9.72710017 13.7006418,9.7945553 13.7669727,9.85976192 L18.3539215,12.8513969 C18.4202523,12.9177277 18.5529141,12.9177277 18.4865832,12.9177277 L23.2061937,12.9177277 C23.4051863,12.9177277 23.6053032,12.785066 23.6053032,12.6524042 C23.6053032,12.5860734 23.5378481,12.5186182 23.4715172,12.4522874 L16.5584908,7.93279375 C16.4932842,7.86646288 16.425829,7.86646288 16.2931673,7.86646288 C16.2268364,7.86646288 16.0941746,7.86646288 16.0267195,7.93279375 Z" id="path-57"></path>
        <path d="M0.889927555,3.84406695 L1.18560587,7.97794206 C1.12039924,7.97794206 2.02879497,11.3877988 6.42911785,14.9966482 C6.5617796,14.7965313 6.42911785,8.58054121 6.42911785,8.41302764 C4.82930705,7.19433832 1.37448023,3.32915947 1.18560587,0.127289372 L0.889927555,3.84406695 Z" id="path-59"></path>
        <path d="M0.356031113,10.2342716 C0.356031113,10.5366954 0.223369361,16.639136 0.356031113,16.8381286 C4.79907557,13.219161 4.8968855,11.6249714 5.70859555,9.47315285 L5.70859555,4.42413649 L5.70859555,0.155351119 C5.2633917,7.14819943 0.356031113,9.93184773 0.356031113,10.2342716 Z" id="path-61"></path>
        <path d="M0.070788136,3.81281067 L0.070788136,10.1052499 C4.68584317,8.61674006 7.1187248,7.666747 7.36493602,7.25527072 C7.35144499,4.25913877 7.35144499,2.11069293 7.36493602,0.80880895 C5.05572212,2.10057466 2.65656806,3.17873246 0.070788136,3.81281067 Z" id="path-63"></path>
    </defs>
    <g id="Page-1" stroke="none" stroke-width="1" fill="none" fill-rule="evenodd">
        <g id="coins-pg-4" transform="translate(-1.000000, 1.000000)">
            <g id="Page-1" transform="translate(161.000000, 0.000000)">
                <path d="M15.6244838,38.2358583 C20.217062,42.5217258 26.4568433,44.6565248 32.8418668,43.4944132 C39.2257644,42.3323016 44.3824223,38.1231335 47.2782574,32.4752712 L15.6244838,38.2358583 Z" id="Fill-1" fill="#FFBC0B"></path>
                <path d="M47.4607712,32.1647937 C47.878483,34.5157455 41.4585564,37.6580952 32.3083033,39.3292116 C23.159176,41.0014902 16.0614529,40.3309518 15.643741,37.9800001 C15.2260292,35.6278862 21.6459558,32.4855365 30.796209,30.8144201 C39.9453363,29.1421415 47.0430594,29.813842 47.4607712,32.1647937" id="Fill-3" fill="#FFDF7A"></path>
                <path d="M35.2143656,57.8311296 C21.2227086,60.3854509 10.5400949,66.1936845 11.3541263,70.8037812 C11.3541263,70.8037812 12.5869954,78.0286289 12.5881213,78.0332773 C13.4010267,82.6433739 25.4032045,84.3086798 39.3948615,81.7543586 C53.3707557,79.2023616 64.0454882,73.4034248 63.2573527,68.7968145 L62.0211058,61.5522109 C61.2082003,56.9421143 49.2071485,55.2768084 35.2143656,57.8311296" id="Fill-5" fill="#F2F3F4"></path>
                <path d="M35.2143656,57.8311296 C21.2227086,60.3854509 10.5400949,66.1936845 11.3541263,70.8037812 C11.3541263,70.8037812 12.5869954,78.0286289 12.5881213,78.0332773 C13.4010267,82.6433739 25.4032045,84.3086798 39.3948615,81.7543586 C53.3707557,79.2023616 64.0454882,73.4034248 63.2573527,68.7968145 L62.0211058,61.5522109 C61.2082003,56.9421143 49.2071485,55.2768084 35.2143656,57.8311296 Z" id="Stroke-7" stroke="#37414B" stroke-width="2"></path>
                <path d="M60.2149138,61.7346847 C61.0334488,66.3784825 50.9509439,72.1053684 37.6978825,74.5260468 C24.4436952,76.9467252 13.0371227,75.1442902 12.2197136,70.5004923 C11.4023045,65.8566944 21.4836835,60.1298086 34.7367449,57.7091301 C47.9909322,55.2884517 59.3975047,57.0908868 60.2149138,61.7346847" id="Fill-9" fill="#D4D9DF"></path>
                <path d="M55.1422845,55.6912314 C55.7255048,58.9904662 47.3588835,63.2774958 36.45334,65.2681929 C25.5489223,67.25889 16.2365384,66.1978822 15.6533182,62.8998095 C15.068972,59.6017369 23.4367192,55.3147072 34.3411368,53.3240101 C45.2455544,51.333313 54.5579383,52.3931587 55.1422845,55.6912314" id="Fill-11" fill="#FFDF7A"></path>
                <path d="M55.9297903,58.7167429 C55.9297903,58.7144187 55.9286644,58.7120945 55.9286644,58.7097703 C55.6494392,57.0851383 55.2306015,55.5267467 54.6890398,54.0450544 C55.2801415,57.5139575 46.8482175,61.9508995 35.8357127,63.9613525 C24.810823,65.9741297 15.376841,64.7934244 14.7632212,61.3221971 L14.7632212,61.3163865 C14.7463326,62.9049931 14.8690566,64.5214903 15.1471558,66.1519328 L15.1482817,66.1519328 C15.1494076,66.1565813 15.1482817,66.1612297 15.1494076,66.1658782 C15.8711146,70.2658078 25.5843217,71.9218168 36.8456521,69.8660414 C48.0945975,67.810266 56.6323568,62.8282937 55.9320421,58.7306883 C55.9320421,58.7272019 55.9309162,58.7248777 55.9309162,58.7213914 C55.9309162,58.7202293 55.9309162,58.717905 55.9297903,58.7167429" id="Fill-13" fill="#FFBC0B"></path>
                <path d="M7.89672435,25.2028467 L7.89672435,25.206333 C7.89785026,25.2086572 7.89785026,25.2109814 7.89897617,25.2133057 C9.99203888,37.4119909 20.8210207,45.6350924 32.0947361,43.5828034 C43.374081,41.5305143 50.827591,29.9698284 48.7412838,17.7606841 L48.7401578,17.7606841 C48.7390319,17.7560357 48.7401578,17.7525493 48.7390319,17.7479009 C48.0533541,13.8501787 38.3536578,12.3603516 27.0754388,14.4207754 C15.8084789,16.4777129 7.2301869,21.2993139 7.89559845,25.1935498 L7.89447254,25.1935498 C7.89559845,25.1970361 7.89559845,25.1993603 7.89672435,25.2028467 Z" id="Stroke-15" stroke="#37414B" stroke-width="2"></path>
                <path d="M56.8200929,60.3110692 C56.8200929,60.3110692 56.8167152,60.2936375 56.8167152,60.2913133 C55.1740156,50.7201623 48.1528542,43.5975805 39.7580852,41.9659758 C37.7427101,43.1989762 35.4931462,44.0833431 33.0656889,44.5261076 C30.6382316,44.96771 28.2321665,44.9305224 25.928559,44.4819474 C18.5763807,48.9828055 14.3373376,58.163487 15.9744076,67.7439348 C15.9744076,67.7439348 15.9946739,67.849687 15.9946739,67.8531733 C16.6814777,71.7508956 26.3609076,73.1442674 37.6402525,71.0850056 C48.9072125,69.026906 57.4855045,64.2064672 56.8200929,60.3110692 Z" id="Stroke-17" stroke="#37414B" stroke-width="2"></path>
                <path d="M24.8619914,1.71183885 C10.8703344,4.1859744 0.186594712,9.81175655 1.00062609,14.2765892 C1.00062609,14.2765892 2.2334952,21.2713388 2.23462111,21.2759873 C3.04865249,25.74082 15.0497044,27.3538308 29.0413613,24.8808574 C43.0183815,22.4090461 53.691988,16.7937229 52.9049784,12.3312145 L51.6687316,5.31670897 C50.8547002,0.851876285 38.8536483,-0.762296698 24.8619914,1.71183885" id="Fill-19" fill="#F2F3F4"></path>
                <path d="M24.8619914,1.71183885 C10.8703344,4.1859744 0.186594712,9.81175655 1.00062609,14.2765892 C1.00062609,14.2765892 2.2334952,21.2713388 2.23462111,21.2759873 C3.04865249,25.74082 15.0497044,27.3538308 29.0413613,24.8808574 C43.0183815,22.4090461 53.691988,16.7937229 52.9049784,12.3312145 L51.6687316,5.31670897 C50.8547002,0.851876285 38.8536483,-0.762296698 24.8619914,1.71183885 Z" id="Stroke-21" stroke="#37414B" stroke-width="2"></path>
                <path d="M50.6462274,6.17900875 C51.3521716,10.0186254 41.1649573,15.0319748 27.8916296,17.3771159 C14.6183018,19.721095 3.28603922,18.5101747 2.58009499,14.6717202 C1.87302485,10.8309414 12.0602392,5.81759205 25.3335669,3.47361299 C38.6068947,1.12730972 49.9391573,2.33939209 50.6462274,6.17900875" id="Fill-23" fill="#D4D9DF"></path>
            </g>
            <g id="Page-1-Copy-11" opacity="0.284986413" transform="translate(40.390308, 48.379969) rotate(-356.000000) translate(-40.390308, -48.379969) translate(6.890308, 25.379969)">
                <g id="Group-3" transform="translate(1.000000, 2.627000)">
                    <mask id="mask-2" fill="white">
                        <use xlink:href="#path-1"></use>
                    </mask>
                    <g id="Clip-2"></g>
                    <polygon id="Fill-1" fill="#E69C00" mask="url(#mask-2)" points="-2.54037198 44.3607433 66.7180568 44.3607433 66.7180568 -2.85323292 -2.54037198 -2.85323292"></polygon>
                </g>
                <g id="Group-6" transform="translate(2.000000, 2.627000)">
                    <mask id="mask-4" fill="white">
                        <use xlink:href="#path-3"></use>
                    </mask>
                    <g id="Clip-5"></g>
                    <polygon id="Fill-4" fill="#FFBC0B" mask="url(#mask-4)" points="-2.91852782 44.3661452 65.7193138 44.3661452 65.7193138 -2.8532422 -2.91852782 -2.8532422"></polygon>
                </g>
                <path d="M33.0339006,0.847795031 C14.602911,0.847795031 0.16751356,9.38467981 0.16751356,20.2839381 L0.16751356,27.7487284 C0.248459714,37.6179786 15.2617228,45.941109 32.9540787,45.941109 L33.1755564,45.941109 C51.2377913,45.941109 66.5737147,37.6179786 66.6546608,27.766449 L66.6546608,20.2839381 C66.6546608,9.38467981 51.8864847,0.847795031 33.0339006,0.847795031 M33.0339006,3.06286633 C50.3147802,3.06286633 64.4061566,10.7901426 64.4061566,20.2839381 L64.4061566,27.7487284 C64.3398257,35.8680723 50.447442,43.7260377 33.1665624,43.7260377 L32.9540787,43.7260377 C15.775506,43.7260377 2.48234872,35.8348462 2.41601784,27.7487284 L2.41601784,20.2839381 C2.41601784,10.7901426 15.7518967,3.06286633 33.0339006,3.06286633" id="Fill-7" fill="#37414B"></path>
                <g id="Group-11" transform="translate(3.000000, 3.627000)">
                    <mask id="mask-6" fill="white">
                        <use xlink:href="#path-5"></use>
                    </mask>
                    <g id="Clip-10"></g>
                    <polygon id="Fill-9" fill="#FFCD48" mask="url(#mask-6)" points="-3.17488836 36.4842865 63.7079957 36.4842865 63.7079957 -3.19136046 -3.17488836 -3.19136046"></polygon>
                </g>
                <g id="Group-14" transform="translate(8.000000, 7.627000)">
                    <mask id="mask-8" fill="white">
                        <use xlink:href="#path-7"></use>
                    </mask>
                    <g id="Clip-13"></g>
                    <polygon id="Fill-12" fill="#FFBC0B" mask="url(#mask-8)" points="-3.14737303 28.4687113 53.4823315 28.4687113 53.4823315 -3.07387533 -3.14737303 -3.07387533"></polygon>
                </g>
                <g id="Group-17" transform="translate(21.000000, 13.627000)">
                    <mask id="mask-10" fill="white">
                        <use xlink:href="#path-9"></use>
                    </mask>
                    <g id="Clip-16"></g>
                    <polygon id="Fill-15" fill="#FFDE85" mask="url(#mask-10)" points="-2.78495499 16.0765832 27.1921041 16.0765832 27.1921041 -2.36468473 -2.78495499 -2.36468473"></polygon>
                </g>
                <g id="Group-20" transform="translate(3.000000, 21.627000)">
                    <mask id="mask-12" fill="white">
                        <use xlink:href="#path-11"></use>
                    </mask>
                    <g id="Clip-19"></g>
                    <polygon id="Fill-18" fill="#CD7D00" mask="url(#mask-12)" points="-3.31162214 18.3204346 8.93373216 18.3204346 8.93373216 -3.05753303 -3.31162214 -3.05753303"></polygon>
                </g>
                <g id="Group-23" transform="translate(58.000000, 19.627000)">
                    <mask id="mask-14" fill="white">
                        <use xlink:href="#path-13"></use>
                    </mask>
                    <g id="Clip-22"></g>
                    <polygon id="Fill-21" fill="#CD7D00" mask="url(#mask-14)" points="-2.9136293 20.1649267 9.14509915 20.1649267 9.14509915 -3.02775088 -2.9136293 -3.02775088"></polygon>
                </g>
                <g id="Group-26" transform="translate(47.000000, 31.627000)">
                    <mask id="mask-16" fill="white">
                        <use xlink:href="#path-15"></use>
                    </mask>
                    <g id="Clip-25"></g>
                    <polygon id="Fill-24" fill="#FFDE85" mask="url(#mask-16)" points="-3.10480909 13.4134021 10.8347932 13.4134021 10.8347932 -2.37895248 -3.10480909 -2.37895248"></polygon>
                </g>
            </g>
            <g id="Page-1-Copy-12" opacity="0.0840126812" transform="translate(40.412975, 61.549014) rotate(-360.000000) translate(-40.412975, -61.549014) translate(6.412975, 38.049014)">
                <g id="Group-3" transform="translate(2.000000, 2.627000)">
                    <mask id="mask-18" fill="white">
                        <use xlink:href="#path-17"></use>
                    </mask>
                    <g id="Clip-2"></g>
                    <polygon id="Fill-1" fill="#E69C00" mask="url(#mask-18)" points="-2.84573051 44.7539063 66.4126983 44.7539063 66.4126983 -3.1695897 -2.84573051 -3.1695897"></polygon>
                </g>
                <g id="Group-6" transform="translate(3.000000, 2.627000)">
                    <mask id="mask-20" fill="white">
                        <use xlink:href="#path-19"></use>
                    </mask>
                    <g id="Clip-5"></g>
                    <polygon id="Fill-4" fill="#FFBC0B" mask="url(#mask-20)" points="-3.22401908 44.7539063 65.4138225 44.7539063 65.4138225 -3.1695897 -3.22401908 -3.1695897"></polygon>
                </g>
                <path d="M33.7177151,0.532195342 C15.2867256,0.532195342 0.851328094,9.19793083 0.851328094,20.2616961 L0.851328094,27.8391556 C0.932274248,37.8573664 15.9455373,46.3061212 33.6378932,46.3061212 L33.8593709,46.3061212 C51.9216058,46.3061212 67.2575292,37.8573664 67.3384754,27.8571436 L67.3384754,20.2616961 C67.3384754,9.19793083 52.5702993,0.532195342 33.7177151,0.532195342 M33.7177151,2.78069962 C50.9985948,2.78069962 65.0899711,10.6246068 65.0899711,20.2616961 L65.0899711,27.8391556 C65.0236402,36.081048 51.1312565,44.0576169 33.8503769,44.0576169 L33.6378932,44.0576169 C16.4593205,44.0576169 3.16616325,36.0473204 3.09983237,27.8391556 L3.09983237,20.2616961 C3.09983237,10.6246068 16.4357113,2.78069962 33.7177151,2.78069962" id="Fill-7" fill="#37414B"></path>
                <g id="Group-11" transform="translate(3.000000, 2.627000)">
                    <mask id="mask-22" fill="white">
                        <use xlink:href="#path-21"></use>
                    </mask>
                    <g id="Clip-10"></g>
                    <polygon id="Fill-9" fill="#FFCD48" mask="url(#mask-22)" points="-2.51686448 37.8408798 64.3660196 37.8408798 64.3660196 -2.50515669 -2.51686448 -2.50515669"></polygon>
                </g>
                <g id="Group-14" transform="translate(8.000000, 6.627000)">
                    <mask id="mask-24" fill="white">
                        <use xlink:href="#path-23"></use>
                    </mask>
                    <g id="Clip-13"></g>
                    <polygon id="Fill-12" fill="#FFBC0B" mask="url(#mask-24)" points="-2.53080624 29.7193715 54.0988983 29.7193715 54.0988983 -2.3847726 -2.53080624 -2.3847726"></polygon>
                </g>
                <g id="Group-17" transform="translate(22.000000, 13.627000)">
                    <mask id="mask-26" fill="white">
                        <use xlink:href="#path-25"></use>
                    </mask>
                    <g id="Clip-16"></g>
                    <polygon id="Fill-15" fill="#FFDE85" mask="url(#mask-26)" points="-3.23764894 16.0727929 26.7394101 16.0727929 26.7394101 -2.67073882 -3.23764894 -2.67073882"></polygon>
                </g>
                <g id="Group-20" transform="translate(3.000000, 20.627000)">
                    <mask id="mask-28" fill="white">
                        <use xlink:href="#path-27"></use>
                    </mask>
                    <g id="Clip-19"></g>
                    <polygon id="Fill-18" fill="#CD7D00" mask="url(#mask-28)" points="-2.75520594 19.1517133 9.49014837 19.1517133 9.49014837 -2.36422416 -2.75520594 -2.36422416"></polygon>
                </g>
                <g id="Group-23" transform="translate(58.000000, 18.627000)">
                    <mask id="mask-30" fill="white">
                        <use xlink:href="#path-29"></use>
                    </mask>
                    <g id="Clip-22"></g>
                    <polygon id="Fill-21" fill="#CD7D00" mask="url(#mask-30)" points="-2.34868774 20.994318 9.71004071 20.994318 9.71004071 -2.33503817 -2.34868774 -2.33503817"></polygon>
                </g>
                <g id="Group-26" transform="translate(47.000000, 31.627000)">
                    <mask id="mask-32" fill="white">
                        <use xlink:href="#path-31"></use>
                    </mask>
                    <g id="Clip-25"></g>
                    <polygon id="Fill-24" fill="#FFDE85" mask="url(#mask-32)" points="-2.57434536 13.260315 11.3652569 13.260315 11.3652569 -2.68382884 -2.57434536 -2.68382884"></polygon>
                </g>
            </g>
            <g id="Page-1-Copy-10" opacity="0.688802083" transform="translate(43.500000, 36.500000) rotate(-360.000000) translate(-43.500000, -36.500000) translate(10.000000, 13.000000)">
                <g id="Group-3" transform="translate(1.000000, 2.627000)">
                    <mask id="mask-34" fill="white">
                        <use xlink:href="#path-33"></use>
                    </mask>
                    <g id="Clip-2"></g>
                    <polygon id="Fill-1" fill="#E69C00" mask="url(#mask-34)" points="-2.52428709 45.0142691 66.7341417 45.0142691 66.7341417 -2.90922683 -2.52428709 -2.90922683"></polygon>
                </g>
                <g id="Group-6" transform="translate(2.000000, 2.627000)">
                    <mask id="mask-36" fill="white">
                        <use xlink:href="#path-35"></use>
                    </mask>
                    <g id="Clip-5"></g>
                    <polygon id="Fill-4" fill="#FFBC0B" mask="url(#mask-36)" points="-2.90257565 45.0142691 65.735266 45.0142691 65.735266 -2.90922683 -2.90257565 -2.90922683"></polygon>
                </g>
                <path d="M33.0391586,0.792558214 C14.608169,0.792558214 0.172771518,9.45829371 0.172771518,20.522059 L0.172771518,28.0995184 C0.253717672,38.1177292 15.2669807,46.5664841 32.9593367,46.5664841 L33.1808143,46.5664841 C51.2430492,46.5664841 66.5789726,38.1177292 66.6599188,28.1175065 L66.6599188,20.522059 C66.6599188,9.45829371 51.8917427,0.792558214 33.0391586,0.792558214 M33.0391586,3.04106249 C50.3200382,3.04106249 64.4114145,10.8849697 64.4114145,20.522059 L64.4114145,28.0995184 C64.3450836,36.3414109 50.4527,44.3179798 33.1718203,44.3179798 L32.9593367,44.3179798 C15.780764,44.3179798 2.48760667,36.3076833 2.4212758,28.0995184 L2.4212758,20.522059 C2.4212758,10.8849697 15.7571547,3.04106249 33.0391586,3.04106249" id="Fill-7" fill="#37414B"></path>
                <g id="Group-11" transform="translate(3.000000, 3.627000)">
                    <mask id="mask-38" fill="white">
                        <use xlink:href="#path-37"></use>
                    </mask>
                    <g id="Clip-10"></g>
                    <polygon id="Fill-9" fill="#FFCD48" mask="url(#mask-38)" points="-3.19542106 37.1012427 63.687463 37.1012427 63.687463 -3.24479382 -3.19542106 -3.24479382"></polygon>
                </g>
                <g id="Group-14" transform="translate(8.000000, 7.627000)">
                    <mask id="mask-40" fill="white">
                        <use xlink:href="#path-39"></use>
                    </mask>
                    <g id="Clip-13"></g>
                    <polygon id="Fill-12" fill="#FFBC0B" mask="url(#mask-40)" points="-3.20936282 28.9797344 53.4203417 28.9797344 53.4203417 -3.12440973 -3.20936282 -3.12440973"></polygon>
                </g>
                <g id="Group-17" transform="translate(21.000000, 13.627000)">
                    <mask id="mask-42" fill="white">
                        <use xlink:href="#path-41"></use>
                    </mask>
                    <g id="Clip-16"></g>
                    <polygon id="Fill-15" fill="#FFDE85" mask="url(#mask-42)" points="-2.91620552 16.3331557 27.0608535 16.3331557 27.0608535 -2.41037595 -2.91620552 -2.41037595"></polygon>
                </g>
                <g id="Group-20" transform="translate(2.000000, 21.627000)">
                    <mask id="mask-44" fill="white">
                        <use xlink:href="#path-43"></use>
                    </mask>
                    <g id="Clip-19"></g>
                    <polygon id="Fill-18" fill="#CD7D00" mask="url(#mask-44)" points="-2.43376251 18.4120762 9.81159179 18.4120762 9.81159179 -3.10386129 -2.43376251 -3.10386129"></polygon>
                </g>
                <g id="Group-23" transform="translate(58.000000, 19.627000)">
                    <mask id="mask-46" fill="white">
                        <use xlink:href="#path-45"></use>
                    </mask>
                    <g id="Clip-22"></g>
                    <polygon id="Fill-21" fill="#CD7D00" mask="url(#mask-46)" points="-3.02724432 20.2546809 9.03148413 20.2546809 9.03148413 -3.07467529 -3.02724432 -3.07467529"></polygon>
                </g>
                <g id="Group-26" transform="translate(47.000000, 31.627000)">
                    <mask id="mask-48" fill="white">
                        <use xlink:href="#path-47"></use>
                    </mask>
                    <g id="Clip-25"></g>
                    <polygon id="Fill-24" fill="#FFDE85" mask="url(#mask-48)" points="-3.25290193 13.5206779 10.6867003 13.5206779 10.6867003 -2.42346597 -3.25290193 -2.42346597"></polygon>
                </g>
            </g>
            <g id="Page-1-Copy-10" transform="translate(34.455074, 26.710303) rotate(-360.000000) translate(-34.455074, -26.710303) translate(0.955074, 3.210303)">
                <g id="Group-3" transform="translate(1.000000, 2.627000)">
                    <mask id="mask-50" fill="white">
                        <use xlink:href="#path-49"></use>
                    </mask>
                    <g id="Clip-2"></g>
                    <polygon id="Fill-1" fill="#E69C00" mask="url(#mask-50)" points="-2.52388634 44.9221305 66.7345425 44.9221305 66.7345425 -3.00136549 -2.52388634 -3.00136549"></polygon>
                </g>
                <g id="Group-6" transform="translate(2.000000, 2.627000)">
                    <mask id="mask-52" fill="white">
                        <use xlink:href="#path-51"></use>
                    </mask>
                    <g id="Clip-5"></g>
                    <polygon id="Fill-4" fill="#FFBC0B" mask="url(#mask-52)" points="-2.90217491 44.9221305 65.7356667 44.9221305 65.7356667 -3.00136549 -2.90217491 -3.00136549"></polygon>
                </g>
                <path d="M33.0395593,0.700419555 C14.6085697,0.700419555 0.17317226,9.36615505 0.17317226,20.4299204 L0.17317226,28.0073798 C0.254118414,38.0255906 15.2673815,46.4743454 32.9597374,46.4743454 L33.1812151,46.4743454 C51.24345,46.4743454 66.5793734,38.0255906 66.6603195,28.0253678 L66.6603195,20.4299204 C66.6603195,9.36615505 51.8921434,0.700419555 33.0395593,0.700419555 M33.0395593,2.94892383 C50.3204389,2.94892383 64.4118153,10.792831 64.4118153,20.4299204 L64.4118153,28.0073798 C64.3454844,36.2492722 50.4531007,44.2258411 33.1722211,44.2258411 L32.9597374,44.2258411 C15.7811647,44.2258411 2.48800742,36.2155446 2.42167654,28.0073798 L2.42167654,20.4299204 C2.42167654,10.792831 15.7575554,2.94892383 33.0395593,2.94892383" id="Fill-7" fill="#37414B"></path>
                <g id="Group-11" transform="translate(3.000000, 2.627000)">
                    <mask id="mask-54" fill="white">
                        <use xlink:href="#path-53"></use>
                    </mask>
                    <g id="Clip-10"></g>
                    <polygon id="Fill-9" fill="#FFCD48" mask="url(#mask-54)" points="-3.19502032 38.0091041 63.6878637 38.0091041 63.6878637 -2.33693248 -3.19502032 -2.33693248"></polygon>
                </g>
                <g id="Group-14" transform="translate(8.000000, 7.627000)">
                    <mask id="mask-56" fill="white">
                        <use xlink:href="#path-55"></use>
                    </mask>
                    <g id="Clip-13"></g>
                    <polygon id="Fill-12" fill="#FFBC0B" mask="url(#mask-56)" points="-3.20896208 28.8875957 53.4207424 28.8875957 53.4207424 -3.21654838 -3.20896208 -3.21654838"></polygon>
                </g>
                <g id="Group-17" transform="translate(21.000000, 13.627000)">
                    <mask id="mask-58" fill="white">
                        <use xlink:href="#path-57"></use>
                    </mask>
                    <g id="Clip-16"></g>
                    <polygon id="Fill-15" fill="#FFDE85" mask="url(#mask-58)" points="-2.91580478 16.2410171 27.0612543 16.2410171 27.0612543 -2.50251461 -2.91580478 -2.50251461"></polygon>
                </g>
                <g id="Group-20" transform="translate(2.000000, 21.627000)">
                    <mask id="mask-60" fill="white">
                        <use xlink:href="#path-59"></use>
                    </mask>
                    <g id="Clip-19"></g>
                    <polygon id="Fill-18" fill="#CD7D00" mask="url(#mask-60)" points="-2.43336177 18.3199375 9.81199254 18.3199375 9.81199254 -3.19599995 -2.43336177 -3.19599995"></polygon>
                </g>
                <g id="Group-23" transform="translate(58.000000, 19.627000)">
                    <mask id="mask-62" fill="white">
                        <use xlink:href="#path-61"></use>
                    </mask>
                    <g id="Clip-22"></g>
                    <polygon id="Fill-21" fill="#CD7D00" mask="url(#mask-62)" points="-3.02684357 20.1625422 9.03188487 20.1625422 9.03188487 -3.16681395 -3.02684357 -3.16681395"></polygon>
                </g>
                <g id="Group-26" transform="translate(47.000000, 31.627000)">
                    <mask id="mask-64" fill="white">
                        <use xlink:href="#path-63"></use>
                    </mask>
                    <g id="Clip-25"></g>
                    <polygon id="Fill-24" fill="#FFDE85" mask="url(#mask-64)" points="-3.25250119 13.4285392 10.6871011 13.4285392 10.6871011 -2.51560463 -3.25250119 -2.51560463"></polygon>
                </g>
            </g>
            <circle id="Oval" fill="#D4D9DF" cx="107" cy="49" r="3"></circle>
            <circle id="Oval-Copy" fill="#D4D9DF" cx="123" cy="49" r="3"></circle>
            <circle id="Oval-Copy-2" fill="#D4D9DF" cx="139" cy="49" r="3"></circle>
        </g>
    </g>
</svg>