<?xml version="1.0" encoding="UTF-8"?>
<svg width="97px" height="65px" viewBox="0 0 97 65" version="1.1" xmlns="http://www.w3.org/2000/svg" xmlns:xlink="http://www.w3.org/1999/xlink">
    <!-- Generator: Sketch 49.3 (51167) - http://www.bohemiancoding.com/sketch -->
    <title>coins</title>
    <desc>Created with Sketch.</desc>
    <defs></defs>
    <g id="Page-1" stroke="none" stroke-width="1" fill="none" fill-rule="evenodd">
        <g id="coins" transform="translate(1.000000, 1.000000)">
            <path d="M47,0 C21,0 0,11.9 0,26.4 L0,37.8 C0.1,50.2 21.2,62.2 47.2,62.1 C73.2,62.1 94.1,50.1 94.2,37.7 L94.2,26.3 C94.2,11.8 73,0 47,0" id="Fill-1" fill="#E69C00" fill-rule="nonzero"></path>
            <path d="M47,0 C21,0 0.935797867,11.8 0.935797867,26.3 L0.935797867,37.7 C1.03579787,50.1 21.2,62.2 47.2,62.1 C73.2,62.1 94.1,50.1 94.2,37.7 L94.2,26.3 C94.2,11.8 73,0 47,0 Z" id="Stroke-3" stroke="#CD7D00" stroke-width="2" fill="#FFBC0B" fill-rule="nonzero"></path>
            <path d="M47.4087501,51.7000239 C22.3954556,51.7962289 2,40.4440414 2,26.3981145 C2,12.4483925 22.2030456,1 47.2163401,1 C72.2296347,1 92.6250902,12.3521875 92.6250902,26.3019095 C92.6250902,40.3478364 72.4220446,51.7000239 47.4087501,51.7000239 Z" id="Fill-5" fill="#FFCD48" fill-rule="nonzero"></path>
            <path d="M84.7,26.3 C84.7,36.9 67.9,45.5 47.2,45.5 C26.5,45.5 9.6,37 9.5,26.4 C9.5,15.8 26.3,7.2 47,7.2 C67.8,7.2 84.6,15.8 84.7,26.3" id="Fill-9" fill="#FFBC0B" fill-rule="nonzero"></path>
            <path d="M37.6,35.4 C37.5,35.5 37.4,35.5 37.2,35.5 L30.1,35.5 C29.8,35.5 29.5,35.3 29.5,35.1 C29.5,35 29.6,34.9 29.7,34.8 L42.1,26.7 C42.2,26.6 42.3,26.5 42.3,26.4 C42.3,26.3 42.2,26.2 42.1,26.1 L29.8,18 C29.7,17.9 29.6,17.8 29.6,17.7 C29.6,17.5 29.9,17.3 30.2,17.3 L37.3,17.3 C37.4,17.3 37.6,17.3 37.7,17.4 L51,26.1 C51.1,26.2 51.2,26.3 51.2,26.4 C51.2,26.5 51.1,26.6 51,26.7 L37.6,35.4 Z M56.5,35.4 L49.6,30.9 C49.5,30.8 49.4,30.7 49.4,30.6 C49.4,30.5 49.5,30.4 49.5,30.3 L53,28 C53.1,27.9 53.3,27.9 53.4,27.9 C53.6,27.9 53.7,27.9 53.8,28 L64.2,34.8 C64.3,34.9 64.4,35 64.4,35.1 C64.4,35.3 64.1,35.5 63.8,35.5 L56.7,35.5 C56.8,35.5 56.6,35.5 56.5,35.4 Z M56.5,17.4 C56.6,17.3 56.7,17.3 56.9,17.3 L64,17.3 C64.3,17.3 64.6,17.5 64.6,17.7 C64.6,17.8 64.5,18 64.4,18 L54,24.8 C53.9,24.9 53.8,24.9 53.6,24.9 C53.4,24.9 53.3,24.8 53.2,24.8 L49.7,22.5 C49.6,22.4 49.6,22.3 49.6,22.2 C49.6,22.1 49.7,22 49.8,21.9 L56.5,17.4 Z" id="Fill-11" fill="#FFDE85" fill-rule="nonzero"></path>
            <path d="M1.64086914,33.8840332 L2.08691406,40.1040039 C1.98691406,40.1040039 3.35424805,45.2329102 9.97460938,50.6633301 C10.1746094,50.3633301 9.97460937,41.0092041 9.97460937,40.7580566 C7.56665039,38.9245605 2.36987305,33.109375 2.08691406,28.2924805" id="Fill-13" fill="#CD7D00" fill-rule="nonzero" opacity="0.188009511"></path>
            <path d="M93.1418457,31.7490234 L93.1418457,39.3444824 C91.9204373,42.5809082 91.7746582,44.9794922 85.0888889,50.4255371 C84.8888889,50.1255371 85.0888889,40.9448242 85.0888889,40.4897461 C85.0888889,40.034668 92.4719238,35.8469238 93.1418457,25.3259277" id="Fill-15" fill="#CD7D00" fill-rule="nonzero" opacity="0.135971467"></path>
            <path d="M68.1101074,48.8806152 L68.1101074,58.3498535 C75.0549316,56.1094564 78.7126465,54.680013 79.083252,54.0615234 C79.0633952,49.5537109 79.0633952,46.3204753 79.083252,44.3618164 C75.6092885,46.3058836 72.0003623,47.9283923 68.1101074,48.8806152 Z" id="Path" fill="#FFDE85" opacity="0.295912591"></path>
        </g>
    </g>
</svg>