<?xml version="1.0" encoding="utf-8"?>
<!-- Generator: Adobe Illustrator 22.1.0, SVG Export Plug-In . SVG Version: 6.00 Build 0)  -->
<svg version="1.1" id="Layer_1" xmlns="http://www.w3.org/2000/svg" xmlns:xlink="http://www.w3.org/1999/xlink" x="0px" y="0px"
	 viewBox="0 0 97 65" style="enable-background:new 0 0 97 65;" xml:space="preserve">
<style type="text/css">
	.st0{fill:#E69C00;}
	.st1{fill:#FFBC0B;stroke:#CD7D00;stroke-width:2;stroke-miterlimit:10;}
	.st2{fill:#FFDF7A;}
	.st3{fill:none;stroke:#CD7D00;stroke-width:2;}
	.st4{fill:#FFBC0B;}
	.st5{opacity:0.4;fill:#CD7D00;enable-background:new    ;}
	.st6{opacity:0.2;fill:#CD7D00;enable-background:new    ;}
</style>
<title>Page 1</title>
<desc>Created with Sketch.</desc>
<g id="Page-1">
	<g transform="translate(0.000000, 1.000000)">
		<path id="Fill-1" class="st0" d="M48,0C22,0,1,11.9,1,26.4v11.4c0.1,12.4,21.2,24.4,47.2,24.3c26,0,46.9-12,47-24.4l0-11.4
			C95.2,11.8,74,0,48,0"/>
		<path id="Stroke-3" class="st1" d="M48,0C22,0,1,11.9,1,26.4v11.4c0.1,12.4,21.2,24.4,47.2,24.3c26,0,46.9-12,47-24.4l0-11.4
			C95.2,11.8,74,0,48,0z"/>
		<path id="Fill-5" class="st2" d="M95.2,26.3c0,14.6-21,26.4-47,26.4C22.2,52.8,1,41,1,26.4C1,11.9,22,0,48,0
			C74,0,95.2,11.8,95.2,26.3"/>
		<path id="Stroke-7" class="st3" d="M95.2,26.3c0,14.6-21,26.4-47,26.4C22.2,52.8,1,41,1,26.4C1,11.9,22,0,48,0
			C74,0,95.2,11.8,95.2,26.3z"/>
		<path id="Fill-9" class="st4" d="M85.7,26.3c0,10.6-16.8,19.2-37.5,19.2S10.6,37,10.5,26.4C10.5,15.8,27.3,7.2,48,7.2
			C68.8,7.2,85.6,15.8,85.7,26.3"/>
		<path id="Fill-11" class="st2" d="M38.6,35.4c-0.1,0.1-0.2,0.1-0.4,0.1h-7.1c-0.3,0-0.6-0.2-0.6-0.4c0-0.1,0.1-0.2,0.2-0.3
			l12.4-8.1c0.1-0.1,0.2-0.2,0.2-0.3c0-0.1-0.1-0.2-0.2-0.3L30.8,18c-0.1-0.1-0.2-0.2-0.2-0.3c0-0.2,0.3-0.4,0.6-0.4h7.1
			c0.1,0,0.3,0,0.4,0.1L52,26.1c0.1,0.1,0.2,0.2,0.2,0.3c0,0.1-0.1,0.2-0.2,0.3L38.6,35.4z M57.5,35.4l-6.9-4.5
			c-0.1-0.1-0.2-0.2-0.2-0.3c0-0.1,0.1-0.2,0.1-0.3l3.5-2.3c0.1-0.1,0.3-0.1,0.4-0.1c0.2,0,0.3,0,0.4,0.1l10.4,6.8
			c0.1,0.1,0.2,0.2,0.2,0.3c0,0.2-0.3,0.4-0.6,0.4h-7.1C57.8,35.5,57.6,35.5,57.5,35.4z M57.5,17.4c0.1-0.1,0.2-0.1,0.4-0.1H65
			c0.3,0,0.6,0.2,0.6,0.4c0,0.1-0.1,0.3-0.2,0.3L55,24.8c-0.1,0.1-0.2,0.1-0.4,0.1c-0.2,0-0.3-0.1-0.4-0.1l-3.5-2.3
			c-0.1-0.1-0.1-0.2-0.1-0.3c0-0.1,0.1-0.2,0.2-0.3L57.5,17.4z"/>
		<path id="Fill-13" class="st5" d="M1,33.7l0.1,4.5c0,0,0.6,8.7,8.8,13.3c0.2-0.3,0-9.7,0-9.7S0.9,36,1,31.1"/>
		<path id="Fill-15" class="st6" d="M95,33.7l-0.1,4.5c0,0-0.6,8.7-8.8,13.3c-0.2-0.3,0-9.7,0-9.7s9-5.8,8.9-10.7"/>
	</g>
</g>
</svg>
