<?xml version="1.0" encoding="UTF-8"?>
<svg width="29px" height="25px" viewBox="0 0 29 25" version="1.1" xmlns="http://www.w3.org/2000/svg" xmlns:xlink="http://www.w3.org/1999/xlink">
    <!-- Generator: Sketch 49.3 (51167) - http://www.bohemiancoding.com/sketch -->
    <title>Fill 48</title>
    <desc>Created with Sketch.</desc>
    <defs></defs>
    <g id="Page-1" stroke="none" stroke-width="1" fill="none" fill-rule="evenodd">
        <g id="Single-Cluster-view" transform="translate(-782.000000, -163.000000)" fill="#69CC73">
            <path d="M794.117395,177.48893 C794.49228,177.48893 794.842859,177.292435 795.032638,176.969557 L796.640625,174.255074 L798.451947,177.872694 C798.632378,178.228321 798.997447,178.452952 799.400846,178.452952 L799.405521,178.452952 C799.803778,178.452952 800.173521,178.228321 800.353952,177.877306 L803.095009,172.505074 L805.604216,176.988007 C805.788854,177.320572 806.144574,177.530904 806.533482,177.530904 L808.586937,177.530904 C807.66702,179.005074 806.40073,180.713561 804.650642,182.631919 C802.00915,185.533672 798.594516,188 796.521896,188 C794.254822,188 790.968265,185.533672 788.326773,182.641605 C786.538823,180.680812 785.253368,178.9631 784.33345,177.48893 L794.117395,177.48893 Z M810.90169,172.148985 C810.773612,173.09917 810.474919,173.997694 810.038332,174.816882 C809.953259,175.017989 809.853227,175.223708 809.748988,175.439114 L807.154707,175.439114 L803.977532,169.757841 C803.787752,169.416052 803.422215,169.210332 803.028632,169.214945 C802.63505,169.22417 802.279329,169.444188 802.099366,169.79059 L799.405521,175.059963 L797.660107,171.583026 C797.489492,171.236624 797.138446,171.016605 796.744864,171.002768 C796.355955,170.988469 795.990886,171.189576 795.791758,171.52214 L793.49617,175.39714 L783.157376,175.39714 C782.967597,175.00369 782.811005,174.634225 782.678253,174.297048 C782.241665,173.309963 782,172.214483 782,171.068266 C782,166.613007 785.651626,163 790.15726,163 C792.703862,163 794.980753,164.155904 796.479359,165.967251 C797.973291,164.155904 800.249714,163 802.80099,163 C807.306625,163 810.958718,166.613007 810.958718,171.068266 L810.958718,171.086716 L810.986764,171.086716 C811.001255,171.082103 811.029768,171.447417 810.90169,172.148985 L810.90169,172.148985 Z" id="Fill-48"></path>
        </g>
    </g>
</svg>