<?xml version="1.0" encoding="UTF-8"?>
<svg width="14px" height="14px" viewBox="0 0 14 14" version="1.1" xmlns="http://www.w3.org/2000/svg" xmlns:xlink="http://www.w3.org/1999/xlink">
    <!-- Generator: Sketch 49.3 (51167) - http://www.bohemiancoding.com/sketch -->
    <title>gear</title>
    <desc>Created with Sketch.</desc>
    <defs></defs>
    <g id="Page-1" stroke="none" stroke-width="1" fill="none" fill-rule="evenodd">
        <g id="Artboard" transform="translate(-16.000000, -8.000000)" fill="#FFFFFF" fill-rule="nonzero">
            <g id="gear" transform="translate(16.000000, 8.000000)">
                <path d="M8.16666667,2.48035373 C8.59485782,2.59056252 8.99926487,2.76001622 9.37062857,2.9794556 L10.4176828,1.9324014 C10.8082071,1.54187711 11.441372,1.54187711 11.8318963,1.9324014 L12.0675986,2.16810366 C12.4581229,2.55862795 12.4581229,3.19179293 12.0675986,3.58231722 L11.0205444,4.62937143 C11.2399838,5.00073513 11.4094375,5.40514218 11.5196463,5.83333333 L13,5.83333333 C13.5522847,5.83333333 14,6.28104858 14,6.83333333 L14,7.16666667 C14,7.71895142 13.5522847,8.16666667 13,8.16666667 L11.5196463,8.16666667 C11.4094375,8.59485782 11.2399838,8.99926487 11.0205444,9.37062857 L12.0675986,10.4176828 C12.4581229,10.8082071 12.4581229,11.441372 12.0675986,11.8318963 L11.8318963,12.0675986 C11.441372,12.4581229 10.8082071,12.4581229 10.4176828,12.0675986 L9.37062857,11.0205444 C8.99926487,11.2399838 8.59485782,11.4094375 8.16666667,11.5196463 L8.16666667,13 C8.16666667,13.5522847 7.71895142,14 7.16666667,14 L6.83333333,14 C6.28104858,14 5.83333333,13.5522847 5.83333333,13 L5.83333333,11.5196463 C5.40514218,11.4094375 5.00073513,11.2399838 4.62937143,11.0205444 L3.58231722,12.0675986 C3.19179293,12.4581229 2.55862795,12.4581229 2.16810366,12.0675986 L1.9324014,11.8318963 C1.54187711,11.441372 1.54187711,10.8082071 1.9324014,10.4176828 L2.9794556,9.37062857 C2.76001622,8.99926487 2.59056252,8.59485782 2.48035373,8.16666667 L1,8.16666667 C0.44771525,8.16666667 0,7.71895142 0,7.16666667 L0,6.83333333 C0,6.28104858 0.44771525,5.83333333 1,5.83333333 L2.48035373,5.83333333 C2.59056252,5.40514218 2.76001622,5.00073513 2.9794556,4.62937143 L1.9324014,3.58231722 C1.54187711,3.19179293 1.54187711,2.55862795 1.9324014,2.16810366 L2.16810366,1.9324014 C2.55862795,1.54187711 3.19179293,1.54187711 3.58231722,1.9324014 L4.62937143,2.9794556 C5.00073513,2.76001622 5.40514218,2.59056252 5.83333333,2.48035373 L5.83333333,1 C5.83333333,0.44771525 6.28104858,1.01453063e-16 6.83333333,0 L7.16666667,0 C7.71895142,-1.01453063e-16 8.16666667,0.44771525 8.16666667,1 L8.16666667,2.48035373 Z M7,9.33333333 C8.28866442,9.33333333 9.33333333,8.28866442 9.33333333,7 C9.33333333,5.71133558 8.28866442,4.66666667 7,4.66666667 C5.71133558,4.66666667 4.66666667,5.71133558 4.66666667,7 C4.66666667,8.28866442 5.71133558,9.33333333 7,9.33333333 Z" id="Combined-Shape"></path>
            </g>
        </g>
    </g>
</svg>