<?xml version="1.0" encoding="UTF-8"?>
<svg width="49px" height="72px" viewBox="0 0 49 72" version="1.1" xmlns="http://www.w3.org/2000/svg" xmlns:xlink="http://www.w3.org/1999/xlink">
    <!-- Generator: Sketch 49.3 (51167) - http://www.bohemiancoding.com/sketch -->
    <title>hourglass</title>
    <desc>Created with Sketch.</desc>
    <defs></defs>
    <g id="Page-1" stroke="none" stroke-width="1" fill="none" fill-rule="evenodd">
        <g id="hourglass" transform="translate(24.500000, 36.500000) rotate(9.000000) translate(-24.500000, -36.500000) translate(-3.000000, 1.000000)">
            <path d="M12.442,32.4071 C16.521,36.0951 22.063,37.9321 27.734,36.9321 C33.404,35.9321 37.984,32.3101 40.556,27.4501 L12.442,32.4071 Z" id="Fill-1" fill="#FFBC0B" fill-rule="nonzero"></path>
            <path d="M40.5416,26.9227 C40.9126,28.9457 35.2106,31.6497 27.0836,33.0877 C18.9576,34.5267 12.6536,33.9497 12.2826,31.9267 C11.9116,29.9027 17.6136,27.1987 25.7406,25.7607 C33.8666,24.3217 40.1706,24.8997 40.5416,26.9227" id="Fill-3" fill="#FFDF7A" fill-rule="nonzero"></path>
            <path d="M29.7935,48.8495 C17.3665,51.0475 7.8785,56.0455 8.6015,60.0125 C8.6015,60.0125 9.6965,66.2295 9.6975,66.2335 C10.4195,70.2005 21.0795,71.6335 33.5065,69.4355 C45.9195,67.2395 55.4005,62.2495 54.7005,58.2855 L53.6025,52.0515 C52.8805,48.0845 42.2215,46.6515 29.7935,48.8495" id="Fill-5" fill="#F2F3F4" fill-rule="nonzero"></path>
            <path d="M29.7935,48.8495 C17.3665,51.0475 7.8785,56.0455 8.6015,60.0125 C8.6015,60.0125 9.6965,66.2295 9.6975,66.2335 C10.4195,70.2005 21.0795,71.6335 33.5065,69.4355 C45.9195,67.2395 55.4005,62.2495 54.7005,58.2855 L53.6025,52.0515 C52.8805,48.0845 42.2215,46.6515 29.7935,48.8495 Z" id="Stroke-7" stroke="#37414B" stroke-width="1.5"></path>
            <path d="M52.4957,52.7157 C53.2227,56.7117 44.2677,61.6397 32.4967,63.7227 C20.7247,65.8057 10.5937,64.2547 9.8677,60.2587 C9.1417,56.2627 18.0957,51.3347 29.8667,49.2517 C41.6387,47.1687 51.7697,48.7197 52.4957,52.7157" id="Fill-9" fill="#D4D9DF" fill-rule="nonzero"></path>
            <path d="M47.5426,46.7157 C48.0606,49.5547 40.6296,53.2437 30.9436,54.9567 C21.2586,56.6697 12.9876,55.7567 12.4696,52.9187 C11.9506,50.0807 19.3826,46.3917 29.0676,44.6787 C38.7526,42.9657 47.0236,43.8777 47.5426,46.7157" id="Fill-11" fill="#FFDF7A" fill-rule="nonzero"></path>
            <path d="M48.774,50.1874 C48.774,50.1854 48.773,50.1834 48.773,50.1814 C48.525,48.7834 48.153,47.4424 47.672,46.1674 C48.197,49.1524 40.708,52.9704 30.927,54.7004 C21.135,56.4324 12.756,55.4164 12.211,52.4294 L12.211,52.4244 C12.196,53.7914 12.305,55.1824 12.552,56.5854 L12.553,56.5854 C12.554,56.5894 12.553,56.5934 12.554,56.5974 C13.195,60.1254 21.822,61.5504 31.824,59.7814 C41.815,58.0124 49.398,53.7254 48.776,50.1994 C48.776,50.1964 48.775,50.1944 48.775,50.1914 C48.775,50.1904 48.775,50.1884 48.774,50.1874" id="Fill-13" fill="#FFBC0B" fill-rule="nonzero"></path>
            <path d="M6.2418,21.1161 L6.2418,21.1191 C6.2428,21.1211 6.2428,21.1231 6.2438,21.1251 C8.1028,31.6221 17.7208,38.6981 27.7338,36.9321 C37.7518,35.1661 44.3718,25.2181 42.5188,14.7121 L42.5178,14.7121 C42.5168,14.7081 42.5178,14.7051 42.5168,14.7011 C41.9078,11.3471 33.2928,10.0651 23.2758,11.8381 C13.2688,13.6081 5.6498,17.7571 6.2408,21.1081 L6.2398,21.1081 C6.2408,21.1111 6.2408,21.1131 6.2418,21.1161 Z" id="Stroke-15" stroke="#37414B" stroke-width="1.5"></path>
            <path d="M48.8316,50.5155 C48.8316,50.5155 48.8286,50.5005 48.8286,50.4985 C47.3696,42.2625 41.1336,36.1335 33.6776,34.7295 C31.8876,35.7905 29.8896,36.5515 27.7336,36.9325 C25.5776,37.3125 23.4406,37.2805 21.3946,36.8945 C14.8646,40.7675 11.0996,48.6675 12.5536,56.9115 C12.5536,56.9115 12.5716,57.0025 12.5716,57.0055 C13.1816,60.3595 21.7786,61.5585 31.7966,59.7865 C41.8036,58.0155 49.4226,53.8675 48.8316,50.5155 Z" id="Stroke-17" stroke="#37414B" stroke-width="1.5"></path>
            <path d="M21.232,0.9979 C8.805,3.1269 -0.684,7.9679 0.039,11.8099 C0.039,11.8099 1.134,17.8289 1.135,17.8329 C1.858,21.6749 12.517,23.0629 24.944,20.9349 C37.358,18.8079 46.838,13.9759 46.139,10.1359 L45.041,4.0999 C44.318,0.2579 33.659,-1.1311 21.232,0.9979" id="Fill-19" fill="#F2F3F4" fill-rule="nonzero"></path>
            <path d="M21.232,0.9979 C8.805,3.1269 -0.684,7.9679 0.039,11.8099 C0.039,11.8099 1.134,17.8289 1.135,17.8329 C1.858,21.6749 12.517,23.0629 24.944,20.9349 C37.358,18.8079 46.838,13.9759 46.139,10.1359 L45.041,4.0999 C44.318,0.2579 33.659,-1.1311 21.232,0.9979 Z" id="Stroke-21" stroke="#37414B" stroke-width="1.5"></path>
            <path d="M44.0845,4.2723 C44.7115,7.5763 35.6635,11.8903 23.8745,13.9083 C12.0855,15.9253 2.0205,14.8833 1.3935,11.5803 C0.7655,8.2753 9.8135,3.9613 21.6025,1.9443 C33.3915,-0.0747 43.4565,0.9683 44.0845,4.2723" id="Fill-23" fill="#D4D9DF" fill-rule="nonzero"></path>
        </g>
    </g>
</svg>