<?xml version="1.0" encoding="UTF-8"?>
<svg width="111px" height="38px" viewBox="0 0 111 38" version="1.1" xmlns="http://www.w3.org/2000/svg" xmlns:xlink="http://www.w3.org/1999/xlink">
    <!-- Generator: Sketch 49.3 (51167) - http://www.bohemiancoding.com/sketch -->
    <title>Group 5</title>
    <desc>Created with Sketch.</desc>
    <defs></defs>
    <g id="Page-1" stroke="none" stroke-width="1" fill="none" fill-rule="evenodd">
        <g transform="translate(1.000000, 1.000000)" id="Group-5">
            <g>
                <path d="M93.8207,0.0002 L14.6227,0.0002 C13.6417,0.0002 12.6847,0.2922 11.8727,0.8402 L2.1697,7.3832 C0.8127,8.2972 0.0007,9.8262 0.0007,11.4622 L0.0007,30.9262 C0.0007,33.6432 2.2027,35.8452 4.9197,35.8452 L103.5237,35.8452 C106.2407,35.8452 108.4437,33.6432 108.4437,30.9262 L108.4437,11.4622 C108.4437,9.8262 107.6307,8.2972 106.2747,7.3832 L96.5717,0.8402 C95.7587,0.2922 94.8007,0.0002 93.8207,0.0002" id="Fill-1" fill="#F8F9FA"></path>
                <path d="M93.8207,0.0002 L14.6227,0.0002 C13.6417,0.0002 12.6847,0.2922 11.8727,0.8402 L2.1697,7.3832 C0.8127,8.2972 0.0007,9.8262 0.0007,11.4622 L0.0007,30.9262 C0.0007,33.6432 2.2027,35.8452 4.9197,35.8452 L103.5237,35.8452 C106.2407,35.8452 108.4437,33.6432 108.4437,30.9262 L108.4437,11.4622 C108.4437,9.8262 107.6307,8.2972 106.2747,7.3832 L96.5717,0.8402 C95.7587,0.2922 94.8007,0.0002 93.8207,0.0002 Z" id="Stroke-3" stroke="#37414B" stroke-width="2" fill="#FFFFFF"></path>
                <path d="M102.3871,33.9069 L5.9391,33.9069 C3.6931,33.9069 1.8711,32.0859 1.8711,29.8399 L1.8711,11.6749 C1.8711,10.3339 2.9581,9.2479 4.2991,9.2479 L104.0271,9.2479 C105.3671,9.2479 106.4541,10.3339 106.4541,11.6749 L106.4541,29.8399 C106.4541,32.0859 104.6331,33.9069 102.3871,33.9069" id="Fill-5" fill="#F2F4F6"></path>
                <path d="M11,22 L11,23.77" id="Stroke-7" stroke="#9AA5B5" stroke-width="2" stroke-linecap="round"></path>
                <path d="M20,21 L20,23.77" id="Stroke-9" stroke="#9AA5B5" stroke-width="2" stroke-linecap="round"></path>
                <path d="M29,21 L29,24.77" id="Stroke-11" stroke="#9AA5B5" stroke-width="2" stroke-linecap="round"></path>
                <path d="M37,20 L37,24.7653805" id="Stroke-13" stroke="#9AA5B5" stroke-width="2" stroke-linecap="round"></path>
                <path d="M71,20 L71,24.7653805" id="Stroke-15" stroke="#9AA5B5" stroke-width="2" stroke-linecap="round"></path>
                <path d="M80,21 L80,24.77" id="Stroke-17" stroke="#9AA5B5" stroke-width="2" stroke-linecap="round"></path>
                <path d="M89,21 L89,23.77" id="Stroke-19" stroke="#9AA5B5" stroke-width="2" stroke-linecap="round"></path>
                <path d="M97,22 L97,23.77" id="Stroke-21" stroke="#9AA5B5" stroke-width="2" stroke-linecap="round"></path>
                <path d="M57.14,18.6193 C57.172,18.5883 57.216,18.5683 57.264,18.5683 L59.452,18.5683 C59.549,18.5683 59.628,18.6483 59.628,18.7453 C59.628,18.8033 59.601,18.8533 59.559,18.8863 L56.348,21.6813 C56.316,21.7133 56.272,21.7333 56.223,21.7333 C56.171,21.7333 56.124,21.7113 56.092,21.6753 L54.998,20.7233 C54.97,20.6923 54.952,20.6503 54.952,20.6043 C54.952,20.5503 54.977,20.5013 55.015,20.4693 L57.14,18.6193 Z" id="Fill-23" fill="#37414B"></path>
                <path d="M57.14,26.0715 C57.172,26.1025 57.216,26.1225 57.264,26.1225 L59.452,26.1225 C59.549,26.1225 59.628,26.0435 59.628,25.9455 C59.628,25.8885 59.601,25.8375 59.559,25.8045 L56.348,23.0095 C56.316,22.9775 56.272,22.9575 56.223,22.9575 C56.171,22.9575 56.124,22.9805 56.092,23.0155 L54.998,23.9675 C54.97,23.9995 54.952,24.0405 54.952,24.0865 C54.952,24.1405 54.977,24.1895 55.015,24.2215 L57.14,26.0715 Z" id="Fill-25" fill="#37414B"></path>
                <path d="M51.3011,26.0759 C51.2701,26.1049 51.2281,26.1219 51.1821,26.1219 L48.9911,26.1219 C48.8941,26.1219 48.8151,26.0429 48.8151,25.9459 C48.8151,25.8969 48.8351,25.8529 48.8661,25.8209 L52.7041,22.4809 C52.7431,22.4489 52.7681,22.3999 52.7681,22.3459 C52.7681,22.2939 52.7451,22.2479 52.7111,22.2159 L48.8781,18.8809 C48.8391,18.8479 48.8151,18.7999 48.8151,18.7459 C48.8151,18.6479 48.8941,18.5689 48.9911,18.5689 L51.1821,18.5689 C51.2281,18.5689 51.2701,18.5869 51.3021,18.6159 L55.4341,22.2119 C55.4711,22.2439 55.4941,22.2919 55.4941,22.3459 C55.4941,22.3989 55.4711,22.4469 55.4331,22.4789 L51.3011,26.0759 Z" id="Fill-27" fill="#37414B"></path>
            </g>
        </g>
    </g>
</svg>