<?xml version="1.0" encoding="UTF-8"?>
<svg width="53px" height="27px" viewBox="0 0 53 27" version="1.1" xmlns="http://www.w3.org/2000/svg" xmlns:xlink="http://www.w3.org/1999/xlink">
    <!-- Generator: Sketch 49.3 (51167) - http://www.bohemiancoding.com/sketch -->
    <title>Group 7</title>
    <desc>Created with Sketch.</desc>
    <defs>
        <path d="M2.691,0.232 C2.653,0.232 2.619,0.245 2.595,0.268 L0.964,1.58 C0.935,1.603 0.915,1.638 0.915,1.676 C0.915,1.708 0.929,1.738 0.951,1.759 L1.79,2.434 C1.815,2.46 1.851,2.476 1.891,2.476 C1.929,2.476 1.962,2.461 1.986,2.439 L4.452,0.458 C4.485,0.434 4.506,0.398 4.506,0.357 C4.506,0.289 4.444,0.232 4.371,0.232 L2.691,0.232 Z" id="path-1"></path>
        <path d="M1.79,0.413 L0.951,1.089 C0.929,1.112 0.915,1.141 0.915,1.174 C0.915,1.212 0.935,1.246 0.964,1.269 L2.595,2.581 C2.619,2.602 2.653,2.617 2.691,2.617 L4.371,2.617 C4.444,2.617 4.506,2.56 4.506,2.491 C4.506,2.451 4.485,2.415 4.452,2.392 L1.986,0.41 C1.962,0.387 1.929,0.373 1.891,0.373 C1.851,0.373 1.815,0.389 1.79,0.413 Z" id="path-3"></path>
        <path d="M0.995,0.232 C0.93,0.232 0.877,0.288 0.877,0.358 C0.877,0.396 0.893,0.432 0.919,0.455 L3.494,2.832 C3.517,2.855 3.532,2.887 3.532,2.925 C3.532,2.964 3.516,2.998 3.49,3.021 L0.911,5.402 C0.89,5.424 0.877,5.456 0.877,5.491 C0.877,5.56 0.93,5.617 0.995,5.617 L2.467,5.617 C2.498,5.617 2.527,5.604 2.548,5.583 L5.323,3.019 C5.349,2.997 5.365,2.963 5.365,2.925 C5.365,2.886 5.349,2.852 5.323,2.829 L2.548,0.265 C2.527,0.245 2.498,0.232 2.467,0.232 L0.995,0.232 Z" id="path-5"></path>
    </defs>
    <g id="Page-1" stroke="none" stroke-width="1" fill="none" fill-rule="evenodd">
        <g id="Page-1-Copy-9" transform="translate(-164.000000, -81.000000)">
            <g id="Group-7" transform="translate(164.000000, 82.000000)">
                <g id="Group-216" transform="translate(0.000000, 0.353000)">
                    <path d="M39.8207,24.2497 L12.9977,24.2497 C6.3977,24.2497 0.9977,18.8507 0.9977,12.2497 L0.9977,12.0207 C0.9977,5.4207 6.3977,0.0207 12.9977,0.0207 L39.8207,0.0207 C46.4207,0.0207 51.8207,5.4207 51.8207,12.0207 L51.8207,12.2497 C51.8207,18.8507 46.4207,24.2497 39.8207,24.2497" id="Fill-206" fill="#F2F4F6"></path>
                    <path d="M39.8207,24.2497 L12.9977,24.2497 C6.3977,24.2497 0.9977,18.8507 0.9977,12.2497 L0.9977,12.0207 C0.9977,5.4207 6.3977,0.0207 12.9977,0.0207 L39.8207,0.0207 C46.4207,0.0207 51.8207,5.4207 51.8207,12.0207 L51.8207,12.2497 C51.8207,18.8507 46.4207,24.2497 39.8207,24.2497 Z" id="Stroke-208" stroke="#37414B" stroke-width="1.5"></path>
                    <path d="M14.391,19.2663 C10.343,19.2663 7.049,15.9723 7.049,11.9243 C7.049,7.8763 10.343,4.5823 14.391,4.5823 C18.439,4.5823 21.733,7.8763 21.733,11.9243 C21.733,15.9723 18.439,19.2663 14.391,19.2663" id="Fill-210" fill="#FFBC0B"></path>
                    <path d="M14.391,3.5827 C9.791,3.5827 6.049,7.3247 6.049,11.9247 C6.049,16.5237 9.791,20.2667 14.391,20.2667 C18.991,20.2667 22.733,16.5237 22.733,11.9247 C22.733,7.3247 18.991,3.5827 14.391,3.5827 M14.391,5.5827 C17.893,5.5827 20.733,8.4217 20.733,11.9247 C20.733,15.4267 17.893,18.2667 14.391,18.2667 C10.889,18.2667 8.049,15.4267 8.049,11.9247 C8.049,8.4217 10.889,5.5827 14.391,5.5827" id="Fill-212" fill="#FFCD48"></path>
                    <path d="M16.5951,9.2683 C16.6191,9.2463 16.6541,9.2323 16.6911,9.2323 L18.3701,9.2323 C18.4451,9.2323 18.5051,9.2893 18.5051,9.3573 C18.5051,9.3983 18.4851,9.4343 18.4521,9.4573 L15.9871,11.4393 C15.9621,11.4613 15.9291,11.4753 15.8911,11.4753 C15.8511,11.4753 15.8151,11.4593 15.7901,11.4343 L14.9501,10.7593 C14.9291,10.7383 14.9151,10.7073 14.9151,10.6753 C14.9151,10.6373 14.9351,10.6023 14.9641,10.5803 L16.5951,9.2683 Z" id="Fill-214" fill="#FFDE85"></path>
                </g>
                <g id="Group-219" transform="translate(14.000000, 9.353000)">
                    <mask id="mask-2" fill="white">
                        <use xlink:href="#path-1"></use>
                    </mask>
                    <g id="Clip-218"></g>
                    <polygon id="Fill-217" fill="#FFDE85" mask="url(#mask-2)" points="-1.328 4.719 6.748 4.719 6.748 -2.012 -1.328 -2.012"></polygon>
                </g>
                <path d="M16.5951,14.9338 C16.6191,14.9548 16.6541,14.9698 16.6911,14.9698 L18.3701,14.9698 C18.4451,14.9698 18.5051,14.9128 18.5051,14.8438 C18.5051,14.8038 18.4851,14.7678 18.4521,14.7448 L15.9871,12.7628 C15.9621,12.7408 15.9291,12.7258 15.8911,12.7258 C15.8511,12.7258 15.8151,12.7428 15.7901,12.7668 L14.9501,13.4418 C14.9291,13.4648 14.9151,13.4938 14.9151,13.5268 C14.9151,13.5648 14.9351,13.5988 14.9641,13.6218 L16.5951,14.9338 Z" id="Fill-220" fill="#FFDE85"></path>
                <g id="Group-224" transform="translate(14.000000, 12.353000)">
                    <mask id="mask-4" fill="white">
                        <use xlink:href="#path-3"></use>
                    </mask>
                    <g id="Clip-223"></g>
                    <polygon id="Fill-222" fill="#FFDE85" mask="url(#mask-4)" points="-1.328 4.86 6.748 4.86 6.748 -1.87 -1.328 -1.87"></polygon>
                </g>
                <path d="M12.5472,14.9367 C12.5262,14.9577 12.4982,14.9697 12.4672,14.9697 L10.9952,14.9697 C10.9302,14.9697 10.8772,14.9137 10.8772,14.8437 C10.8772,14.8087 10.8902,14.7777 10.9112,14.7547 L13.4892,12.3737 C13.5162,12.3507 13.5322,12.3167 13.5322,12.2777 C13.5322,12.2407 13.5172,12.2077 13.4942,12.1847 L10.9192,9.8077 C10.8932,9.7847 10.8772,9.7497 10.8772,9.7107 C10.8772,9.6407 10.9302,9.5847 10.9952,9.5847 L12.4672,9.5847 C12.4982,9.5847 12.5262,9.5977 12.5482,9.6187 L15.3232,12.1817 C15.3492,12.2057 15.3642,12.2397 15.3642,12.2777 C15.3642,12.3157 15.3492,12.3497 15.3232,12.3727 L12.5472,14.9367 Z" id="Fill-225" fill="#FFDE85"></path>
                <g id="Group-229" transform="translate(10.000000, 9.353000)">
                    <mask id="mask-6" fill="white">
                        <use xlink:href="#path-5"></use>
                    </mask>
                    <g id="Clip-228"></g>
                    <polygon id="Fill-227" fill="#FFDE85" mask="url(#mask-6)" points="-1.367 7.86 7.608 7.86 7.608 -2.012 -1.367 -2.012"></polygon>
                </g>
                <g id="Group-236" transform="translate(26.000000, 8.353000)" fill="#37414B">
                    <path d="M1.4248,5.0163 C1.0698,5.0163 0.7858,4.7763 0.7858,4.4533 C0.7858,4.1533 1.0698,3.9123 1.4248,3.9123 L5.7318,3.9123 C6.0868,3.9123 6.3728,4.1533 6.3728,4.4533 C6.3728,4.7763 6.0868,5.0163 5.7318,5.0163 L1.4248,5.0163 Z" id="Fill-230"></path>
                    <path d="M1.4248,5.0163 C1.0698,5.0163 0.7858,4.7763 0.7858,4.4533 C0.7858,4.1533 1.0698,3.9123 1.4248,3.9123 L5.7318,3.9123 C6.0868,3.9123 6.3728,4.1533 6.3728,4.4533 C6.3728,4.7763 6.0868,5.0163 5.7318,5.0163 L1.4248,5.0163 Z" id="Fill-230-Copy" transform="translate(3.579300, 4.464300) rotate(-270.000000) translate(-3.579300, -4.464300) "></path>
                    <path d="M11.9349,7.8161 C11.9349,8.2001 11.6109,8.5241 11.2039,8.5241 C10.8199,8.5241 10.4959,8.2001 10.4959,7.8161 L10.4959,2.3111 L9.5369,3.3061 C9.4279,3.4261 9.2849,3.4741 9.1409,3.4741 C8.8289,3.4741 8.5399,3.2111 8.5399,2.8751 C8.5399,2.7191 8.6009,2.5631 8.7209,2.4431 L10.5079,0.6321 C10.6519,0.4761 10.8679,0.3921 11.1079,0.3921 C11.5509,0.3921 11.9349,0.7401 11.9349,1.1961 L11.9349,7.8161 Z" id="Fill-232"></path>
                    <path d="M16.4711,1.6032 C15.1881,1.6032 14.7201,2.9352 14.7201,4.4572 C14.7201,5.9812 15.1881,7.3252 16.4711,7.3252 C17.7661,7.3252 18.2221,5.9812 18.2221,4.4572 C18.2221,2.9352 17.7661,1.6032 16.4711,1.6032 M16.4711,8.5952 C14.2281,8.5952 13.2691,6.4732 13.2691,4.4572 C13.2691,2.4312 14.2281,0.3322 16.4711,0.3322 C18.7131,0.3322 19.6851,2.4312 19.6851,4.4572 C19.6851,6.4732 18.7131,8.5952 16.4711,8.5952" id="Fill-234"></path>
                </g>
            </g>
        </g>
    </g>
</svg>