<?xml version="1.0" encoding="UTF-8"?>
<svg width="74px" height="98px" viewBox="0 0 74 98" version="1.1" xmlns="http://www.w3.org/2000/svg" xmlns:xlink="http://www.w3.org/1999/xlink">
    <!-- Generator: Sketch 49.3 (51167) - http://www.bohemiancoding.com/sketch -->
    <title>Group 4</title>
    <desc>Created with Sketch.</desc>
    <defs></defs>
    <g id="Page-1" stroke="none" stroke-width="1" fill="none" fill-rule="evenodd">
        <g id="Group-3" transform="translate(-460.000000, 1.000000)">
            <g id="Page-1" transform="translate(461.000000, 0.000000)">
                <g id="Group-4">
                    <path d="M48.9327694,0 L4.59538681,0 C2.0573452,0 0,2.07170516 0,4.62835334 L0,91.3716467 C0,93.9274034 2.0573452,96 4.59538681,96 L67.4037279,96 C69.9417695,96 72,93.9274034 72,91.3716467 L72,23.2291278 C72,22.0016157 71.5157626,20.8231329 70.6535189,19.9557623 L52.1825604,1.35587932 C51.3203167,0.48761735 50.151773,0 48.9327694,0" id="Fill-17" fill="#FFFFFF"></path>
                    <path d="M48.9327694,0 L4.59538681,0 C2.0573452,0 0,2.07170516 0,4.62835334 L0,91.3716467 C0,93.9274034 2.0573452,96 4.59538681,96 L67.4037279,96 C69.9417695,96 72,93.9274034 72,91.3716467 L72,23.2291278 C72,22.0016157 71.5157626,20.8231329 70.6535189,19.9557623 L52.1825604,1.35587932 C51.3203167,0.48761735 50.151773,0 48.9327694,0" id="Fill-17" fill="#FFFFFF"></path>
                    <path d="M39.7433704,47.0805687 C39.798118,47.0315956 39.8733961,47 39.9555175,47 L43.6988879,47 C43.8648417,47 44,47.1263823 44,47.2796209 C44,47.371248 43.9538067,47.450237 43.8819504,47.5023697 L38.3883661,51.9178515 C38.3336185,51.9684044 38.2583405,52 38.1745081,52 C38.0855432,52 38.0051326,51.9652449 37.9503849,51.9083728 L36.0786997,50.4044234 C36.0307956,50.3554502 36,50.2890995 36,50.2164297 C36,50.1311216 36.0427716,50.0537125 36.1077844,50.0031596 L39.7433704,47.0805687 Z" id="Fill-23" fill="#D5DAE0"></path>
                    <path d="M39.7433704,58.9194313 C39.798118,58.9684044 39.8733961,59 39.9555175,59 L43.6988879,59 C43.8648417,59 44,58.8751975 44,58.7203791 C44,58.6303318 43.9538067,58.549763 43.8819504,58.4976303 L38.3883661,54.0821485 C38.3336185,54.0315956 38.2583405,54 38.1745081,54 C38.0855432,54 38.0051326,54.0363349 37.9503849,54.0916272 L36.0786997,55.5955766 C36.0307956,55.6461295 36,55.7109005 36,55.7835703 C36,55.8688784 36.0427716,55.9462875 36.1077844,55.9968404 L39.7433704,58.9194313 Z" id="Fill-25" fill="#D5DAE0"></path>
                    <path d="M31.0943255,58.9269165 C31.04327,58.9729909 30.9740979,59 30.8983381,59 L27.2898638,59 C27.1301093,59 27,58.874487 27,58.720376 C27,58.6425261 27.0329391,58.5726202 27.0839946,58.5217794 L33.4050007,53.2152787 C33.4692319,53.164438 33.5104057,53.0865881 33.5104057,53.0007944 C33.5104057,52.9181782 33.4725258,52.8450947 33.4165294,52.7942539 L27.103758,47.4956971 C27.0395269,47.4432676 27,47.3670065 27,47.2812128 C27,47.125513 27.1301093,47 27.2898638,47 L30.8983381,47 C30.9740979,47 31.04327,47.0285979 31.0959725,47.0746723 L37.9011828,52.7878988 C37.9621201,52.8387396 38,52.9150007 38,53.0007944 C38,53.0849993 37.9621201,53.1612604 37.8995359,53.2121012 L31.0943255,58.9269165 Z" id="Fill-27" fill="#D5DAE0"></path>
                    <path d="M48.9327694,0 L4.59538681,0 C2.0573452,0 0,2.07170516 0,4.62835334 L0,91.3716467 C0,93.9274034 2.0573452,96 4.59538681,96 L67.4037279,96 C69.9417695,96 72,93.9274034 72,91.3716467 L72,23.2291278 C72,22.0016157 71.5157626,20.8231329 70.6535189,19.9557623 L52.1825604,1.35587932 C51.3203167,0.48761735 50.151773,0 48.9327694,0 Z" id="Stroke-19" stroke="#37414B" stroke-width="2"></path>
                    <path d="M68,17 L1,17 L1,5.16815239 C1,2.70092296 2.38035767,1 4.90704661,1 L49.4124882,1 C50.819044,1 52.167434,1.54540567 53.1624224,2.51664068 L68,17 Z" id="Fill-45" fill="#F2F4F6"></path>
                    <path d="M51,1.72462069 L51,20.0876976 C51,21.1433328 51.8566593,22 52.9132057,22 L71.2751905,22 C71.9199878,22 72.2423864,21.2207092 71.7864226,20.7656622 L52.2352474,1.21338379 C51.7792836,0.757415737 51,1.08073854 51,1.72462069" id="Fill-49" fill="#F8F9FA"></path>
                    <path d="M51,1.72462069 L51,20.0876976 C51,21.1433328 51.8566593,22 52.9132057,22 L71.2751905,22 C71.9199878,22 72.2423864,21.2207092 71.7864226,20.7656622 L52.2352474,1.21338379 C51.7792836,0.757415737 51,1.08073854 51,1.72462069 Z" id="Stroke-51" stroke="#37414B" stroke-width="2"></path>
                </g>
            </g>
        </g>
    </g>
</svg>